<?xml version="1.0" encoding="utf-8"?>
<!-- Generator: Adobe Illustrator 27.9.4, SVG Export Plug-In . SVG Version: 9.03 Build 54784)  -->
<svg version="1.1" id="Layer_1" xmlns="http://www.w3.org/2000/svg" xmlns:xlink="http://www.w3.org/1999/xlink" x="0px" y="0px"
	 viewBox="0 0 300 180" style="enable-background:new 0 0 300 180;" xml:space="preserve">
<style type="text/css">
	.st0{clip-path:url(#SVGID_00000129898589347156046860000004662760338559810184_);}
	.st1{fill:#FF7D24;}
	.st2{fill:#69BCA0;}
	.st3{fill:#97D4C5;}
	.st4{fill:#6B5C56;}
</style>
<g>
	<defs>
		<rect id="SVGID_1_" x="38" y="10.1" width="224" height="98.7"/>
	</defs>
	<clipPath id="SVGID_00000095305026455641870100000007340422713061261992_">
		<use xlink:href="#SVGID_1_"  style="overflow:visible;"/>
	</clipPath>
	<g style="clip-path:url(#SVGID_00000095305026455641870100000007340422713061261992_);">
		<path class="st1" d="M133.7,40.7c4.9-4.9,9.7-3.9,14.1,0.2c4,3.7,10.7-0.2,9.1-5.4c-0.5-1.6-1.6-2.9-3.4-3.9
			c-17.9-9.9-51.8,24.3-64.9,43.9c-9.3,13.9-9.8,5.5-12.7-1.7c-5.8-14.2-22.1-53-34.5-40.7c-14.4,14.2,22.6,65.3,33.5,74.4
			c1.9,1.6,4.6,1.7,6.6,0.3c8.5-5.8,31.5-21.7,49.9-37.7c1.8-1.5,2.4-4,1.5-6.2C129,54.8,128.2,46.2,133.7,40.7L133.7,40.7z"/>
		<path class="st2" d="M258.9,11.3c-18.8-10.4-73.7,47.4-84.2,66.8c-7,13-7.5,2.2-8.7-1.6c-2.5-7.7-6.5-18.6-11.5-26.9
			c-0.6-1-2.1-1.1-2.8-0.1c-2.6,3.5-6,7.2-9.9,11.1c-4.4,4.4-5.3,11.2-2,16.5c7.8,12.5,18.2,24.2,23.4,29.7c1.8,1.9,4.7,2.3,6.9,0.8
			C187.8,95.5,279.9,22.9,258.9,11.3z"/>
		<path class="st3" d="M78.8,48.1c-1.1,4.6,1.9,8.3,6.6,8.3c4.4,0,8.3-3.7,9.8-8.1c1.4-4.5-1.6-8.4-6.1-8.4
			C84.6,39.9,79.9,43.5,78.8,48.1z"/>
		<path class="st2" d="M168.3,44.8c-1.1,4.8,2,8.6,6.8,8.6s8.6-3.8,10.2-8.5c1.5-4.7-1.6-8.7-6.3-8.7
			C174.2,36.2,169.4,40,168.3,44.8z"/>
	</g>
</g>
<path class="st4" d="M38.6,154.9c-1.8,0-3.5-0.4-5.1-1.1c-1.6-0.7-3-1.7-4.2-3c-1.2-1.3-2.1-2.7-2.8-4.4c-0.7-1.7-1-3.5-1-5.4
	c0-1.9,0.3-3.7,1-5.4c0.7-1.7,1.6-3.1,2.8-4.4c1.2-1.3,2.6-2.3,4.2-3c1.6-0.7,3.3-1.1,5.1-1.1c2.2,0,4.1,0.5,6,1.5
	c1.8,1,3.3,2.3,4.5,4l-3.5,1.9c-0.8-1-1.8-1.9-3.1-2.5c-1.2-0.6-2.5-0.9-3.9-0.9c-1.3,0-2.5,0.3-3.6,0.8c-1.1,0.5-2.1,1.2-2.9,2.1
	c-0.8,0.9-1.5,1.9-2,3.1c-0.5,1.2-0.7,2.5-0.7,3.8c0,1.4,0.2,2.6,0.7,3.8c0.5,1.2,1.1,2.2,2,3.1c0.9,0.9,1.8,1.6,2.9,2.1
	c1.1,0.5,2.3,0.8,3.5,0.8c1.4,0,2.7-0.3,3.9-0.9c1.2-0.6,2.2-1.5,3-2.5l3.5,1.9c-1.2,1.7-2.7,3-4.5,4
	C42.8,154.4,40.8,154.9,38.6,154.9z M63.9,154.9c-2.1,0-4-0.5-5.6-1.6c-1.6-1-2.8-2.4-3.7-4.2c-0.9-1.8-1.3-3.7-1.3-5.9v-15.6h4
	v15.6c0,1.4,0.3,2.7,0.8,3.8c0.5,1.2,1.3,2.1,2.2,2.8c1,0.7,2.2,1,3.6,1c1.4,0,2.6-0.3,3.6-1c1-0.7,1.7-1.6,2.2-2.8
	c0.5-1.2,0.8-2.5,0.8-3.8v-15.6h4v15.6c0,1.6-0.2,3.1-0.7,4.5c-0.5,1.4-1.2,2.6-2.1,3.7c-0.9,1.1-2,1.9-3.3,2.5
	C66.9,154.6,65.5,154.9,63.9,154.9z M88.5,154.9c-1.5,0-2.9-0.2-4.2-0.7c-1.3-0.5-2.5-1.1-3.5-2c-1-0.9-1.7-1.9-2.2-3.1l3.7-1.4
	c0.2,0.6,0.6,1.2,1.2,1.6c0.6,0.5,1.4,0.8,2.2,1.1c0.9,0.3,1.8,0.4,2.7,0.4c1,0,2-0.2,2.9-0.5c0.9-0.3,1.6-0.8,2.2-1.4
	c0.6-0.6,0.8-1.3,0.8-2.1c0-0.8-0.3-1.5-0.9-2c-0.6-0.5-1.3-0.9-2.2-1.2c-0.9-0.3-1.8-0.5-2.8-0.7c-1.9-0.3-3.5-0.8-5-1.3
	c-1.5-0.6-2.6-1.4-3.5-2.5c-0.9-1.1-1.3-2.4-1.3-4.1c0-1.6,0.5-3,1.4-4.2c0.9-1.2,2.1-2.1,3.6-2.7c1.5-0.7,3.1-1,4.9-1
	c1.4,0,2.8,0.2,4.2,0.7c1.3,0.4,2.5,1.1,3.5,2c1,0.9,1.8,1.9,2.2,3.1l-3.8,1.4c-0.2-0.6-0.6-1.2-1.2-1.6c-0.6-0.5-1.3-0.8-2.2-1.1
	c-0.9-0.3-1.8-0.4-2.7-0.4c-1,0-2,0.2-2.9,0.5c-0.9,0.3-1.6,0.8-2.2,1.4c-0.6,0.6-0.8,1.3-0.8,2c0,1,0.3,1.7,0.8,2.2
	c0.5,0.5,1.2,0.9,2.1,1.1c0.9,0.2,1.9,0.4,3,0.6c1.8,0.3,3.4,0.7,4.9,1.4c1.5,0.6,2.7,1.5,3.6,2.6c0.9,1.1,1.4,2.4,1.4,3.9
	c0,1.6-0.5,3-1.4,4.2c-0.9,1.2-2.1,2.1-3.6,2.8C91.9,154.5,90.3,154.9,88.5,154.9z M107.8,154.4l-6.8-26.7h4.1l5,19.6l5-19.6h3.6
	l5,19.6l5-19.6h4.1l-6.8,26.7h-4.6l-4.5-17.7l-4.5,17.7H107.8z"/>
<path class="st4" d="M148.8,138.6c-1,0-1.8-0.2-2.6-0.7c-0.7-0.5-1.3-1.1-1.7-1.9c-0.4-0.8-0.6-1.7-0.6-2.7v-7.2h1.2v7.2
	c0,0.8,0.1,1.4,0.4,2.1c0.3,0.6,0.7,1.1,1.2,1.5c0.5,0.4,1.2,0.6,1.9,0.6c0.8,0,1.4-0.2,1.9-0.6c0.5-0.4,0.9-0.9,1.2-1.5
	c0.3-0.6,0.4-1.3,0.4-2.1v-7.2h1.2v7.2c0,0.7-0.1,1.4-0.3,2.1c-0.2,0.6-0.5,1.2-1,1.7c-0.4,0.5-0.9,0.9-1.5,1.2
	C150.2,138.5,149.5,138.6,148.8,138.6z M163.2,132.9v5.4H162v-5.2c0-0.5-0.1-0.9-0.4-1.3c-0.2-0.4-0.5-0.7-0.9-0.9
	c-0.4-0.2-0.8-0.4-1.3-0.4c-0.5,0-0.9,0.1-1.3,0.4c-0.4,0.2-0.7,0.5-0.9,0.9c-0.2,0.4-0.4,0.8-0.4,1.3v5.2h-1.2v-8.8h1.2v1.2
	c0.3-0.4,0.7-0.8,1.2-1.1c0.5-0.3,1-0.4,1.6-0.4c0.7,0,1.3,0.2,1.8,0.5c0.5,0.3,1,0.8,1.3,1.3C163.1,131.7,163.2,132.3,163.2,132.9z
	 M165,129.6h1.2v8.8H165V129.6z M165.6,128c-0.2,0-0.4-0.1-0.5-0.2c-0.1-0.1-0.2-0.3-0.2-0.5c0-0.2,0.1-0.4,0.2-0.5
	c0.1-0.1,0.3-0.2,0.5-0.2c0.2,0,0.4,0.1,0.5,0.2c0.1,0.1,0.2,0.3,0.2,0.5c0,0.2-0.1,0.4-0.2,0.5C166,128,165.8,128,165.6,128z
	 M172.5,138.4h-1.6l-3.2-8.8h1.3l2.7,7.4l2.7-7.4h1.3L172.5,138.4z M180.7,138.6c-0.8,0-1.5-0.2-2.2-0.6c-0.7-0.4-1.2-1-1.6-1.7
	c-0.4-0.7-0.6-1.5-0.6-2.3c0-0.6,0.1-1.2,0.3-1.8c0.2-0.6,0.5-1.1,0.9-1.5c0.4-0.4,0.9-0.8,1.4-1c0.5-0.2,1.1-0.4,1.7-0.4
	c0.7,0,1.2,0.1,1.8,0.4c0.6,0.3,1,0.6,1.4,1.1c0.4,0.5,0.7,1,0.9,1.6c0.2,0.6,0.3,1.3,0.3,2h-7.5c0.1,0.6,0.2,1.1,0.5,1.5
	c0.3,0.4,0.7,0.8,1.1,1c0.4,0.3,0.9,0.4,1.5,0.4c0.6,0,1.1-0.2,1.6-0.5c0.5-0.3,0.9-0.7,1.1-1.3l1.2,0.3c-0.4,0.8-0.9,1.4-1.6,1.9
	C182.3,138.4,181.5,138.6,180.7,138.6z M177.5,133.4h6.3c0-0.5-0.2-1-0.5-1.5c-0.3-0.5-0.7-0.8-1.1-1.1c-0.5-0.3-1-0.4-1.5-0.4
	c-0.5,0-1,0.1-1.5,0.4c-0.5,0.3-0.8,0.6-1.1,1.1C177.8,132.4,177.6,132.9,177.5,133.4z M186.5,138.4v-8.8h1.2v1.2
	c0.3-0.4,0.7-0.8,1.2-1.1c0.5-0.3,1-0.4,1.6-0.4c0.3,0,0.7,0,1,0.1l-0.5,1.2c-0.2-0.1-0.5-0.1-0.7-0.1c-0.5,0-0.9,0.1-1.3,0.4
	c-0.4,0.2-0.7,0.5-0.9,0.9c-0.2,0.4-0.4,0.8-0.4,1.3v5.2H186.5z M195.4,138.5c-0.5,0-1-0.1-1.4-0.3c-0.5-0.2-0.9-0.4-1.2-0.7
	c-0.3-0.3-0.6-0.6-0.7-1l1.1-0.5c0.1,0.2,0.3,0.4,0.5,0.6c0.3,0.2,0.6,0.3,0.9,0.5c0.3,0.1,0.7,0.2,1,0.2c0.4,0,0.7-0.1,1-0.2
	c0.3-0.1,0.6-0.3,0.8-0.5c0.2-0.2,0.3-0.5,0.3-0.8c0-0.3-0.1-0.6-0.3-0.8c-0.2-0.2-0.5-0.3-0.8-0.4c-0.3-0.1-0.7-0.2-1-0.3
	c-0.6-0.2-1.2-0.4-1.6-0.6c-0.5-0.2-0.8-0.5-1.1-0.8c-0.3-0.3-0.4-0.7-0.4-1.2c0-0.5,0.1-1,0.4-1.4c0.3-0.4,0.7-0.7,1.2-0.9
	c0.5-0.2,1-0.3,1.6-0.3c0.7,0,1.4,0.2,2,0.5c0.6,0.3,1,0.7,1.3,1.2l-1,0.6c-0.1-0.2-0.3-0.4-0.5-0.6c-0.2-0.2-0.5-0.3-0.8-0.4
	c-0.3-0.1-0.6-0.2-0.9-0.2c-0.4,0-0.7,0.1-1,0.2c-0.3,0.1-0.6,0.3-0.8,0.5c-0.2,0.2-0.3,0.5-0.3,0.8c0,0.3,0.1,0.6,0.3,0.7
	c0.2,0.2,0.5,0.3,0.8,0.4c0.3,0.1,0.7,0.2,1.1,0.4c0.5,0.2,1,0.4,1.5,0.6c0.5,0.2,0.8,0.5,1.1,0.8c0.3,0.3,0.4,0.7,0.4,1.2
	c0,0.5-0.2,1-0.5,1.4c-0.3,0.4-0.7,0.7-1.2,0.9C196.5,138.5,196,138.6,195.4,138.5z M200.2,129.6h1.2v8.8h-1.2V129.6z M200.8,128
	c-0.2,0-0.4-0.1-0.5-0.2c-0.1-0.1-0.2-0.3-0.2-0.5c0-0.2,0.1-0.4,0.2-0.5c0.1-0.1,0.3-0.2,0.5-0.2c0.2,0,0.4,0.1,0.5,0.2
	c0.1,0.1,0.2,0.3,0.2,0.5c0,0.2-0.1,0.4-0.2,0.5C201.2,128,201,128,200.8,128z M208,130.8h-2.1l0,7.6h-1.2l0-7.6h-1.6v-1.2h1.6
	l0-2.8h1.2l0,2.8h2.1V130.8z M215.5,129.6h1.3l-4.8,13.2h-1.3l1.6-4.4l-3.2-8.8h1.3l2.4,7.1L215.5,129.6z M218.1,130.6v-4.6h0.9v4.6
	H218.1z M223.3,138.5c-0.5,0-0.9-0.1-1.4-0.3c-0.5-0.2-0.9-0.4-1.2-0.7c-0.3-0.3-0.6-0.6-0.7-1l1.1-0.5c0.1,0.2,0.3,0.4,0.5,0.6
	c0.3,0.2,0.6,0.3,0.9,0.5c0.3,0.1,0.7,0.2,1,0.2c0.4,0,0.7-0.1,1-0.2s0.6-0.3,0.8-0.5c0.2-0.2,0.3-0.5,0.3-0.8
	c0-0.3-0.1-0.6-0.3-0.8c-0.2-0.2-0.5-0.3-0.8-0.4c-0.3-0.1-0.7-0.2-1-0.3c-0.6-0.2-1.2-0.4-1.6-0.6c-0.5-0.2-0.8-0.5-1.1-0.8
	c-0.3-0.3-0.4-0.7-0.4-1.2c0-0.5,0.2-1,0.4-1.4c0.3-0.4,0.7-0.7,1.2-0.9c0.5-0.2,1-0.3,1.6-0.3c0.7,0,1.4,0.2,2,0.5
	c0.6,0.3,1,0.7,1.3,1.2l-1,0.6c-0.1-0.2-0.3-0.4-0.5-0.6c-0.2-0.2-0.5-0.3-0.8-0.4c-0.3-0.1-0.6-0.2-0.9-0.2c-0.4,0-0.7,0.1-1,0.2
	c-0.3,0.1-0.6,0.3-0.8,0.5c-0.2,0.2-0.3,0.5-0.3,0.8c0,0.3,0.1,0.6,0.3,0.7c0.2,0.2,0.5,0.3,0.8,0.4c0.3,0.1,0.7,0.2,1.1,0.4
	c0.5,0.2,1,0.4,1.5,0.6c0.5,0.2,0.8,0.5,1.1,0.8c0.3,0.3,0.4,0.7,0.4,1.2c0,0.5-0.2,1-0.5,1.4c-0.3,0.4-0.7,0.7-1.2,0.9
	C224.4,138.5,223.9,138.6,223.3,138.5z M144,156.4l2.4-12.3h0.9l3.5,9.1l3.4-9.1h0.9l2.4,12.3h-1.3l-1.8-9.4l-3.3,8.6h-0.8l-3.3-8.6
	l-1.8,9.4H144z M159.4,147.6h1.2v8.8h-1.2V147.6z M160,146c-0.2,0-0.4-0.1-0.5-0.2c-0.1-0.1-0.2-0.3-0.2-0.5c0-0.2,0.1-0.4,0.2-0.5
	c0.1-0.1,0.3-0.2,0.5-0.2c0.2,0,0.4,0.1,0.5,0.2c0.1,0.1,0.2,0.3,0.2,0.5c0,0.2-0.1,0.4-0.2,0.5C160.4,146,160.2,146,160,146z
	 M170.4,150.9v5.4h-1.2v-5.2c0-0.5-0.1-0.9-0.4-1.3c-0.2-0.4-0.5-0.7-0.9-0.9c-0.4-0.2-0.8-0.4-1.3-0.4c-0.5,0-0.9,0.1-1.3,0.4
	c-0.4,0.2-0.7,0.5-0.9,0.9c-0.2,0.4-0.4,0.8-0.4,1.3v5.2h-1.2v-8.8h1.2v1.2c0.3-0.4,0.7-0.8,1.2-1.1c0.5-0.3,1-0.4,1.6-0.4
	c0.7,0,1.3,0.2,1.8,0.5c0.5,0.3,1,0.8,1.3,1.3C170.2,149.7,170.4,150.3,170.4,150.9z M179.2,143.2h1.2v13.2h-1.2v-1.6
	c-0.3,0.6-0.7,1-1.3,1.4c-0.5,0.3-1.2,0.5-1.9,0.5c-0.6,0-1.2-0.1-1.8-0.4c-0.6-0.2-1-0.6-1.5-1c-0.4-0.4-0.8-0.9-1-1.5
	c-0.2-0.6-0.4-1.2-0.4-1.8c0-0.6,0.1-1.2,0.4-1.8c0.2-0.6,0.6-1.1,1-1.5c0.4-0.4,0.9-0.8,1.5-1c0.6-0.2,1.2-0.4,1.8-0.4
	c0.7,0,1.4,0.2,1.9,0.5c0.5,0.3,1,0.8,1.3,1.3V143.2z M176.1,155.4c0.6,0,1.2-0.2,1.6-0.5c0.5-0.3,0.8-0.7,1-1.2
	c0.2-0.5,0.4-1.1,0.4-1.7c0-0.6-0.1-1.2-0.4-1.7c-0.2-0.5-0.6-0.9-1-1.2c-0.5-0.3-1-0.5-1.6-0.5c-0.6,0-1.2,0.2-1.7,0.5
	c-0.5,0.3-0.9,0.7-1.2,1.2c-0.3,0.5-0.5,1.1-0.5,1.7c0,0.6,0.2,1.2,0.5,1.7c0.3,0.5,0.7,0.9,1.2,1.2
	C174.9,155.3,175.5,155.4,176.1,155.4z M192.5,156.6c-0.8,0-1.6-0.2-2.4-0.5c-0.7-0.3-1.4-0.8-1.9-1.4c-0.6-0.6-1-1.3-1.3-2
	c-0.3-0.8-0.5-1.6-0.5-2.5s0.2-1.7,0.5-2.5c0.3-0.8,0.8-1.5,1.3-2c0.6-0.6,1.2-1,1.9-1.4c0.7-0.3,1.5-0.5,2.4-0.5
	c1,0,1.9,0.2,2.8,0.7c0.8,0.5,1.5,1.1,2.1,1.8l-1.1,0.6c-0.4-0.6-1-1-1.7-1.4c-0.7-0.3-1.4-0.5-2.1-0.5c-0.7,0-1.3,0.1-1.9,0.4
	c-0.6,0.3-1.1,0.6-1.5,1.1c-0.4,0.5-0.8,1-1,1.6c-0.2,0.6-0.4,1.3-0.4,2c0,0.7,0.1,1.4,0.4,2c0.3,0.6,0.6,1.2,1,1.6
	c0.4,0.5,1,0.8,1.5,1.1c0.6,0.3,1.2,0.4,1.9,0.4c0.8,0,1.5-0.2,2.1-0.5c0.7-0.4,1.2-0.8,1.6-1.4l1.1,0.6c-0.6,0.8-1.2,1.4-2.1,1.8
	C194.4,156.4,193.5,156.6,192.5,156.6z M202.6,156.6c-0.8,0-1.5-0.2-2.2-0.6c-0.7-0.4-1.2-1-1.6-1.7c-0.4-0.7-0.6-1.5-0.6-2.3
	c0-0.6,0.1-1.2,0.3-1.8c0.2-0.6,0.5-1.1,0.9-1.5c0.4-0.4,0.9-0.8,1.4-1c0.5-0.2,1.1-0.4,1.7-0.4c0.8,0,1.5,0.2,2.2,0.6
	c0.7,0.4,1.2,1,1.6,1.7c0.4,0.7,0.6,1.5,0.6,2.3c0,0.6-0.1,1.2-0.3,1.8c-0.2,0.6-0.5,1.1-1,1.5c-0.4,0.4-0.9,0.8-1.4,1
	C203.7,156.5,203.2,156.6,202.6,156.6z M202.6,155.4c0.6,0,1.1-0.2,1.6-0.5c0.5-0.3,0.9-0.7,1.1-1.2c0.3-0.5,0.4-1.1,0.4-1.7
	c0-0.6-0.1-1.2-0.4-1.7c-0.3-0.5-0.7-0.9-1.1-1.2c-0.5-0.3-1-0.5-1.6-0.5c-0.6,0-1.1,0.2-1.6,0.5c-0.5,0.3-0.9,0.7-1.1,1.2
	c-0.3,0.5-0.4,1.1-0.4,1.7c0,0.6,0.1,1.2,0.4,1.7c0.3,0.5,0.7,0.9,1.2,1.2C201.4,155.2,202,155.4,202.6,155.4z M208.4,156.4v-8.8
	h1.2v1.2c0.3-0.4,0.7-0.8,1.2-1.1c0.5-0.3,1-0.4,1.6-0.4c0.7,0,1.3,0.2,1.8,0.5c0.6,0.3,1,0.8,1.3,1.3c0.3-0.5,0.7-1,1.3-1.3
	c0.5-0.3,1.2-0.5,1.8-0.5c0.7,0,1.3,0.2,1.8,0.5c0.5,0.3,1,0.8,1.3,1.3c0.3,0.5,0.5,1.1,0.5,1.8v5.4h-1.2v-5.2
	c0-0.5-0.1-0.9-0.3-1.3c-0.2-0.4-0.5-0.7-0.9-1c-0.4-0.2-0.8-0.4-1.3-0.4c-0.5,0-0.9,0.1-1.3,0.3c-0.4,0.2-0.7,0.5-0.9,0.9
	c-0.2,0.4-0.3,0.8-0.3,1.4v5.2h-1.2v-5.2c0-0.5-0.1-1-0.3-1.4c-0.2-0.4-0.5-0.7-0.9-0.9c-0.4-0.2-0.8-0.3-1.3-0.3
	c-0.5,0-0.9,0.1-1.3,0.4c-0.4,0.2-0.7,0.6-0.9,1s-0.3,0.8-0.3,1.3v5.2H208.4z M225.3,160.8h-1.2v-13.2h1.2v1.6
	c0.3-0.6,0.7-1,1.2-1.4c0.5-0.3,1.2-0.5,1.9-0.5c0.6,0,1.2,0.1,1.8,0.4c0.6,0.2,1.1,0.6,1.5,1c0.4,0.4,0.8,0.9,1,1.5
	c0.2,0.6,0.4,1.2,0.4,1.8c0,0.6-0.1,1.2-0.4,1.8c-0.2,0.6-0.6,1.1-1,1.5c-0.4,0.4-0.9,0.8-1.5,1c-0.6,0.2-1.2,0.4-1.8,0.4
	c-0.7,0-1.4-0.2-1.9-0.5c-0.5-0.3-0.9-0.8-1.2-1.4V160.8z M228.4,148.5c-0.6,0-1.2,0.2-1.6,0.5c-0.5,0.3-0.8,0.7-1,1.2
	c-0.2,0.5-0.4,1.1-0.4,1.7c0,0.6,0.1,1.2,0.4,1.7c0.2,0.5,0.6,0.9,1,1.2c0.5,0.3,1,0.5,1.6,0.5c0.6,0,1.2-0.2,1.7-0.5
	c0.5-0.3,0.9-0.7,1.2-1.2c0.3-0.5,0.5-1.1,0.5-1.8c0-0.6-0.2-1.2-0.5-1.7c-0.3-0.5-0.7-0.9-1.2-1.2
	C229.6,148.7,229.1,148.5,228.4,148.5z M241.7,147.6h1.2v8.8h-1.2l0-1.6c-0.3,0.6-0.7,1-1.2,1.4c-0.5,0.3-1.1,0.5-1.8,0.5
	c-0.6,0-1.2-0.1-1.8-0.4c-0.6-0.2-1.1-0.6-1.5-1c-0.4-0.4-0.8-0.9-1-1.5c-0.2-0.6-0.4-1.2-0.4-1.8c0-0.6,0.1-1.2,0.4-1.8
	c0.2-0.6,0.6-1,1-1.5c0.4-0.4,0.9-0.8,1.5-1c0.6-0.2,1.2-0.4,1.8-0.4c0.7,0,1.4,0.2,1.9,0.5c0.5,0.3,1,0.8,1.3,1.4L241.7,147.6z
	 M238.6,155.4c0.6,0,1.2-0.2,1.6-0.5c0.5-0.3,0.8-0.7,1-1.2c0.2-0.5,0.4-1.1,0.4-1.7c0-0.6-0.1-1.2-0.4-1.7c-0.2-0.5-0.6-0.9-1-1.2
	c-0.5-0.3-1-0.5-1.6-0.5c-0.6,0-1.2,0.2-1.7,0.5c-0.5,0.3-0.9,0.7-1.2,1.2c-0.3,0.5-0.4,1.1-0.4,1.7c0,0.6,0.2,1.2,0.5,1.7
	c0.3,0.5,0.7,0.9,1.2,1.2C237.4,155.3,238,155.4,238.6,155.4z M252.4,150.9v5.4h-1.2v-5.2c0-0.5-0.1-0.9-0.4-1.3
	c-0.2-0.4-0.5-0.7-0.9-0.9c-0.4-0.2-0.8-0.4-1.3-0.4c-0.5,0-0.9,0.1-1.3,0.4c-0.4,0.2-0.7,0.5-0.9,0.9c-0.2,0.4-0.4,0.8-0.4,1.3v5.2
	h-1.2v-8.8h1.2v1.2c0.3-0.4,0.7-0.8,1.2-1.1c0.5-0.3,1-0.4,1.6-0.4c0.7,0,1.3,0.2,1.8,0.5c0.5,0.3,1,0.8,1.3,1.3
	C252.2,149.7,252.4,150.3,252.4,150.9z M254.2,147.6h1.2v8.8h-1.2V147.6z M254.8,146c-0.2,0-0.4-0.1-0.5-0.2
	c-0.1-0.1-0.2-0.3-0.2-0.5c0-0.2,0.1-0.4,0.2-0.5c0.1-0.1,0.3-0.2,0.5-0.2c0.2,0,0.4,0.1,0.5,0.2c0.1,0.1,0.2,0.3,0.2,0.5
	c0,0.2-0.1,0.4-0.2,0.5C255.1,146,255,146,254.8,146z M261.3,156.6c-0.8,0-1.5-0.2-2.2-0.6c-0.7-0.4-1.2-1-1.6-1.7
	c-0.4-0.7-0.6-1.5-0.6-2.3c0-0.6,0.1-1.2,0.3-1.8c0.2-0.6,0.5-1.1,0.9-1.5c0.4-0.4,0.9-0.8,1.4-1c0.5-0.2,1.1-0.4,1.7-0.4
	c0.8,0,1.5,0.2,2.2,0.6c0.7,0.4,1.2,1,1.6,1.7c0.4,0.7,0.6,1.5,0.6,2.3c0,0.6-0.1,1.2-0.3,1.8c-0.2,0.6-0.5,1.1-1,1.5
	c-0.4,0.4-0.9,0.8-1.4,1C262.5,156.5,261.9,156.6,261.3,156.6z M261.3,155.4c0.6,0,1.1-0.2,1.6-0.5c0.5-0.3,0.9-0.7,1.1-1.2
	c0.3-0.5,0.4-1.1,0.4-1.7c0-0.6-0.1-1.2-0.4-1.7c-0.3-0.5-0.7-0.9-1.1-1.2c-0.5-0.3-1-0.5-1.6-0.5c-0.6,0-1.1,0.2-1.6,0.5
	c-0.5,0.3-0.9,0.7-1.1,1.2c-0.3,0.5-0.4,1.1-0.4,1.7c0,0.6,0.1,1.2,0.4,1.7c0.3,0.5,0.7,0.9,1.2,1.2
	C260.2,155.2,260.7,155.4,261.3,155.4z M274.9,150.9v5.4h-1.2v-5.2c0-0.5-0.1-0.9-0.4-1.3c-0.2-0.4-0.5-0.7-0.9-0.9
	c-0.4-0.2-0.8-0.4-1.3-0.4c-0.5,0-0.9,0.1-1.3,0.4c-0.4,0.2-0.7,0.5-0.9,0.9c-0.2,0.4-0.4,0.8-0.4,1.3v5.2h-1.2v-8.8h1.2v1.2
	c0.3-0.4,0.7-0.8,1.2-1.1c0.5-0.3,1-0.4,1.6-0.4c0.7,0,1.3,0.2,1.8,0.5c0.5,0.3,1,0.8,1.3,1.3C274.7,149.7,274.9,150.3,274.9,150.9z
	"/>
</svg>
