<svg width="200" height="200" viewBox="0 0 200 200" fill="none" xmlns="http://www.w3.org/2000/svg">
<path d="M88.4001 96.085C91.6774 92.8076 94.8785 93.4827 97.8074 96.2047C100.475 98.6763 104.906 96.0632 103.839 92.5899C103.524 91.5446 102.783 90.6736 101.575 89.9985C89.6631 83.4003 67.0702 106.189 58.2835 119.277C52.0773 128.521 51.7397 122.946 49.8017 118.155C45.9581 108.672 35.1027 82.8123 26.795 91.0111C17.2135 100.473 41.8642 134.542 49.0939 140.617C50.3461 141.674 52.1535 141.761 53.5036 140.846C59.1981 136.992 74.4959 126.398 86.7886 115.738C87.9754 114.715 88.3783 113.038 87.7794 111.59C85.2534 105.449 84.7199 99.7543 88.4001 96.0741V96.085Z" fill="#FF7D24"/>
<path d="M171.868 76.4972C159.357 69.5723 122.729 108.073 115.728 121.041C111.046 129.707 110.742 122.532 109.914 119.995C108.248 114.9 105.559 107.615 102.26 102.041C101.846 101.344 100.866 101.3 100.376 101.954C98.6339 104.273 96.3692 106.777 93.7561 109.358C90.8054 112.276 90.2174 116.849 92.4168 120.365C97.6322 128.673 104.568 136.502 107.987 140.193C109.185 141.478 111.134 141.706 112.593 140.715C124.526 132.626 185.881 84.2604 171.868 76.5081V76.4972Z" fill="#69BCA0"/>
<path d="M51.8039 101.714C51.1833 104.393 52.9145 106.559 55.6365 106.559C58.3585 106.559 60.5035 104.414 61.3528 101.801C62.2021 99.1881 60.4491 96.8907 57.8032 96.8907C55.1574 96.8907 52.4245 99.0465 51.8039 101.725V101.714Z" fill="#97D4C5"/>
<path d="M111.482 98.7852C110.753 101.965 112.789 104.523 116.012 104.523C119.049 104.523 121.771 101.986 122.773 98.8832C123.775 95.7801 121.684 93.058 118.57 93.058C115.456 93.058 112.201 95.6059 111.471 98.7852H111.482Z" fill="#69BCA0"/>
<path d="M177.921 66.3821C182.799 77.1614 185.521 89.1274 185.521 101.736C185.521 128.466 173.294 152.333 154.131 168.055" stroke="#6B5C56" stroke-width="2.17763" stroke-miterlimit="10" stroke-linecap="square"/>
<path d="M43.4851 166.444C25.4216 150.722 14 127.563 14 101.736C14 89.2146 16.6894 77.3139 21.5128 66.5891" stroke="#6B5C56" stroke-width="2.17763" stroke-miterlimit="10" stroke-linecap="square"/>
<path d="M48.548 176.799L52.9032 162.503L55.1353 163.853L52.152 173.619L59.447 166.466L61.4178 167.664L58.4344 177.43L65.7186 170.277L67.9506 171.627L57.2803 182.09L54.8304 180.599L57.4545 171.932L50.9978 178.269L48.5371 176.777L48.548 176.799Z" fill="#6B5C56"/>
<path d="M64.3566 185.291L68.984 171.572L77.5857 174.469L76.7799 176.864L70.5628 174.774L69.6264 177.561L74.5588 179.227L73.753 181.622L68.8207 179.956L67.5468 183.724L73.7639 185.814L72.9582 188.209L64.3457 185.313L64.3566 185.291Z" fill="#6B5C56"/>
<path d="M76.4316 189.037L79.0448 174.795L81.5273 175.253L79.3714 187.012L85.3055 188.101L84.8482 190.583L76.4316 189.037Z" fill="#6B5C56"/>
<path d="M88.2031 190.953L89.0633 176.494L91.5784 176.646L90.8707 188.58L96.8918 188.939L96.7394 191.454L88.2031 190.942V190.953Z" fill="#6B5C56"/>
<path d="M99.9616 191.476L99.2539 177.016L101.976 176.886L108.563 186.5L108.084 176.592L110.599 176.472L111.307 190.931L108.585 191.062L101.987 181.448L102.466 191.356L99.9399 191.476H99.9616Z" fill="#6B5C56"/>
<path d="M114.999 190.387L112.32 176.156L121.249 174.479L121.717 176.962L115.271 178.171L115.815 181.056L120.933 180.087L121.401 182.569L116.284 183.528L117.013 187.425L123.459 186.217L123.927 188.699L114.999 190.376V190.387Z" fill="#6B5C56"/>
<path d="M132.452 186.358C131.7 186.62 130.927 186.761 130.154 186.761C129.381 186.761 128.652 186.642 127.977 186.38C127.301 186.119 126.735 185.716 126.289 185.172L128.238 183.571C128.423 183.8 128.684 183.974 129.044 184.083C129.403 184.203 129.806 184.257 130.252 184.235C130.699 184.224 131.156 184.137 131.613 183.974C132.092 183.811 132.506 183.582 132.865 183.288C133.225 182.994 133.486 182.678 133.649 182.319C133.813 181.971 133.834 181.611 133.704 181.263C133.573 180.903 133.344 180.653 132.996 180.522C132.648 180.381 132.245 180.316 131.776 180.326C131.308 180.326 130.84 180.381 130.383 180.468C129.359 180.664 128.412 180.729 127.53 180.686C126.648 180.642 125.897 180.424 125.255 180.022C124.612 179.63 124.144 178.987 123.828 178.105C123.534 177.278 123.523 176.472 123.785 175.688C124.046 174.904 124.503 174.207 125.157 173.587C125.81 172.966 126.583 172.498 127.487 172.193C128.238 171.932 129 171.79 129.773 171.779C130.546 171.779 131.276 171.899 131.962 172.16C132.648 172.422 133.214 172.835 133.66 173.38L131.7 174.98C131.515 174.752 131.254 174.577 130.895 174.469C130.535 174.349 130.132 174.305 129.686 174.316C129.24 174.327 128.782 174.425 128.325 174.577C127.857 174.73 127.443 174.959 127.084 175.263C126.724 175.557 126.463 175.884 126.289 176.243C126.115 176.592 126.093 176.94 126.213 177.278C126.365 177.713 126.605 177.996 126.92 178.138C127.247 178.269 127.628 178.323 128.075 178.279C128.521 178.236 129.011 178.171 129.534 178.073C130.492 177.898 131.417 177.844 132.31 177.909C133.203 177.975 133.987 178.203 134.651 178.606C135.315 179.009 135.794 179.608 136.077 180.424C136.371 181.252 136.393 182.058 136.143 182.842C135.892 183.626 135.435 184.333 134.782 184.943C134.128 185.564 133.344 186.032 132.43 186.348L132.452 186.358Z" fill="#6B5C56"/>
<path d="M145.723 180.294C145.026 180.697 144.307 180.969 143.545 181.11C142.783 181.263 142.043 181.263 141.335 181.132C140.616 181.002 139.996 180.708 139.451 180.25L141.073 178.312C141.291 178.508 141.596 178.628 141.966 178.671C142.337 178.715 142.739 178.693 143.186 178.606C143.621 178.508 144.057 178.345 144.481 178.094C144.917 177.844 145.287 177.539 145.592 177.191C145.897 176.842 146.093 176.472 146.191 176.102C146.289 175.721 146.234 175.372 146.049 175.057C145.864 174.73 145.581 174.523 145.211 174.458C144.841 174.382 144.438 174.392 143.981 174.49C143.523 174.588 143.077 174.719 142.63 174.882C141.661 175.253 140.736 175.503 139.865 175.623C138.994 175.743 138.21 175.666 137.502 175.394C136.805 175.122 136.217 174.578 135.749 173.772C135.314 173.01 135.15 172.226 135.259 171.409C135.368 170.592 135.684 169.819 136.217 169.09C136.751 168.36 137.426 167.762 138.253 167.293C138.939 166.901 139.669 166.629 140.431 166.477C141.193 166.324 141.934 166.313 142.652 166.455C143.371 166.597 144.002 166.891 144.547 167.348L142.914 169.275C142.696 169.079 142.402 168.959 142.032 168.916C141.661 168.872 141.259 168.894 140.823 168.981C140.388 169.079 139.952 169.253 139.527 169.493C139.103 169.732 138.733 170.026 138.439 170.386C138.145 170.745 137.938 171.115 137.84 171.485C137.742 171.866 137.774 172.204 137.959 172.52C138.188 172.923 138.471 173.162 138.82 173.227C139.168 173.293 139.549 173.282 139.974 173.151C140.409 173.031 140.867 172.868 141.378 172.683C142.293 172.335 143.197 172.106 144.079 172.008C144.971 171.91 145.777 171.997 146.507 172.269C147.236 172.541 147.813 173.042 148.238 173.794C148.673 174.556 148.848 175.34 148.739 176.156C148.641 176.973 148.325 177.746 147.791 178.475C147.258 179.205 146.583 179.804 145.744 180.283L145.723 180.294Z" fill="#6B5C56"/>
<path d="M35.8854 54.8625C35.3301 55.7335 34.6332 56.4413 33.8058 56.9857C32.9783 57.5301 32.0637 57.8894 31.0837 58.0854C30.1038 58.2814 29.1021 58.2705 28.0895 58.0854C27.0769 57.9003 26.1078 57.5083 25.1932 56.9203C24.2677 56.3324 23.5056 55.6138 22.9176 54.7754C22.3188 53.937 21.905 53.0333 21.6655 52.0642C21.4259 51.0952 21.3824 50.1261 21.5239 49.1353C21.6655 48.1554 22.0139 47.219 22.5692 46.3589C23.2334 45.3136 24.0827 44.5188 25.1279 43.9526C26.1623 43.3864 27.2729 43.0706 28.4379 43.0053L28.231 45.6947C27.556 45.7709 26.9136 45.9887 26.3038 46.348C25.6941 46.7073 25.1932 47.1972 24.8122 47.7961C24.4528 48.3623 24.2242 48.9611 24.1371 49.6035C24.05 50.2459 24.0935 50.8883 24.2569 51.5198C24.4202 52.1513 24.7142 52.7393 25.117 53.2946C25.5199 53.8499 26.0207 54.3181 26.6305 54.6992C27.2402 55.0911 27.8826 55.3524 28.5468 55.4831C29.211 55.6138 29.8751 55.6247 30.5175 55.5049C31.1599 55.396 31.7588 55.1673 32.3032 54.8189C32.8476 54.4705 33.294 54.0241 33.6642 53.4579C34.0562 52.8482 34.2848 52.184 34.3502 51.4872C34.4155 50.7794 34.3502 50.1044 34.1215 49.462L36.4842 48.1554C36.9089 49.2333 37.0831 50.3766 37.0069 51.5525C36.9306 52.7284 36.5604 53.8499 35.8963 54.8843L35.8854 54.8625Z" fill="#6B5C56"/>
<path d="M35.516 31.1481L37.3779 29.2536L48.2442 39.9457L46.3823 41.8403L41.5045 37.0495L37.073 41.5463L41.9509 46.3371L40.089 48.2316L29.2227 37.5395L31.0845 35.6449L35.1785 39.6735L39.6099 35.1767L35.516 31.1481Z" fill="#6B5C56"/>
<path d="M55.1021 35.5034C54.0786 36.1676 53.0224 36.5051 51.9227 36.5051C50.8339 36.5051 49.7995 36.222 48.8196 35.6559C47.8397 35.0897 47.0231 34.2948 46.3589 33.2605L41.5137 25.813L43.7457 24.3649L48.591 31.8123C48.9829 32.4221 49.462 32.9012 50.0173 33.2605C50.5726 33.6198 51.1714 33.8158 51.7921 33.8375C52.4127 33.8593 53.0333 33.6742 53.6539 33.2714C54.2746 32.8685 54.6992 32.3785 54.9278 31.8015C55.1565 31.2244 55.2218 30.6038 55.1129 29.9505C55.0041 29.2972 54.7536 28.6657 54.3617 28.0559L49.5164 20.6085L51.7485 19.1603L56.5937 26.6078C57.0946 27.3809 57.443 28.1866 57.639 29.0141C57.835 29.8416 57.8676 30.6582 57.7479 31.4639C57.6281 32.2696 57.3559 33.0209 56.9095 33.7069C56.474 34.4037 55.8642 34.9917 55.1021 35.4925V35.5034Z" fill="#6B5C56"/>
<path d="M62.0285 31.1155L56.2578 17.0045L58.7185 16.0028L63.4766 27.6531L69.3562 25.2468L70.3579 27.7075L62.0176 31.1155H62.0285Z" fill="#6B5C56"/>
<path d="M73.9723 11.0051L76.9665 10.3518L85.6117 24.0709L82.857 24.6697L81.3326 22.2416L74.9522 23.6244L74.5711 26.4662L71.8164 27.0651L73.994 10.9942L73.9723 11.0051ZM75.3224 20.8262L79.7974 19.8571L76.2261 14.2062L75.3224 20.8262Z" fill="#6B5C56"/>
<path d="M98.1657 23.7878C97.3274 23.7878 96.5216 23.6354 95.7486 23.3632C94.9755 23.0909 94.3005 22.699 93.7343 22.1981C93.1572 21.6973 92.7434 21.0984 92.5039 20.3907L95.0082 19.4979C95.1062 19.7918 95.313 20.0532 95.6179 20.3036C95.9337 20.5431 96.3039 20.7391 96.7612 20.8915C97.2076 21.044 97.6867 21.1202 98.2093 21.1202C98.7428 21.1202 99.2328 21.044 99.701 20.8915C100.169 20.7391 100.539 20.5105 100.822 20.2165C101.106 19.9225 101.258 19.585 101.258 19.193C101.258 18.7901 101.116 18.4635 100.822 18.2022C100.528 17.9409 100.147 17.734 99.6901 17.5816C99.2328 17.4291 98.7537 17.3094 98.2528 17.2222C97.1749 17.048 96.2059 16.7758 95.3566 16.4274C94.5073 16.0681 93.8323 15.5781 93.3423 14.9575C92.8523 14.3369 92.6128 13.5312 92.6128 12.5512C92.6128 11.6257 92.8959 10.8309 93.4294 10.145C93.9629 9.45901 94.6706 8.92549 95.5308 8.55529C96.4019 8.17421 97.3382 8 98.3399 8C99.1783 8 99.9732 8.14155 100.757 8.41375C101.53 8.68595 102.205 9.06704 102.793 9.57878C103.37 10.0796 103.784 10.6894 104.034 11.3971L101.519 12.279C101.421 11.9851 101.214 11.7237 100.91 11.4733C100.605 11.2338 100.224 11.0378 99.7772 10.8962C99.3308 10.7547 98.8517 10.6785 98.3291 10.6676C97.8173 10.6567 97.3273 10.7329 96.8592 10.8962C96.4019 11.0596 96.0208 11.2882 95.7268 11.5822C95.4328 11.8762 95.2804 12.2028 95.2804 12.5839C95.2804 13.0739 95.411 13.4332 95.6832 13.6836C95.9554 13.934 96.3147 14.1191 96.7721 14.228C97.2294 14.3369 97.7302 14.4567 98.2964 14.5547C99.309 14.7289 100.245 15.0011 101.106 15.3822C101.966 15.7632 102.652 16.275 103.174 16.9065C103.697 17.538 103.947 18.3111 103.936 19.2148C103.936 20.1403 103.664 20.946 103.131 21.6319C102.597 22.3179 101.9 22.8514 101.04 23.2325C100.169 23.6136 99.2328 23.7878 98.2202 23.7878H98.1657Z" fill="#6B5C56"/>
<path d="M119.549 10.0688L119.179 12.7037L114.562 12.0613L112.831 24.5282L110.196 24.158L111.927 11.6911L107.311 11.0487L107.681 8.41376L119.538 10.0688H119.549Z" fill="#6B5C56"/>
<path d="M124.896 27.6966C123.742 27.3156 122.816 26.7058 122.13 25.8457C121.444 24.9964 121.009 24.0165 120.845 22.895C120.682 21.7735 120.78 20.6411 121.161 19.4761L123.927 11.0269L126.453 11.8544L123.687 20.3036C123.459 20.9896 123.382 21.6646 123.459 22.3288C123.524 22.993 123.753 23.57 124.123 24.0709C124.493 24.5718 125.037 24.9311 125.734 25.1597C126.442 25.3884 127.084 25.4101 127.683 25.225C128.282 25.0399 128.794 24.7024 129.24 24.2124C129.676 23.7225 130.013 23.1236 130.242 22.4377L133.007 13.9885L135.534 14.816L132.768 23.2652C132.485 24.1362 132.071 24.9202 131.548 25.5843C131.026 26.2485 130.405 26.8038 129.708 27.2067C129.012 27.6095 128.249 27.8709 127.444 27.9688C126.638 28.0668 125.789 27.9688 124.918 27.6858L124.896 27.6966Z" fill="#6B5C56"/>
<path d="M132.713 30.1791L140.215 16.9065L144.614 19.389C145.528 19.9116 146.29 20.5649 146.889 21.3597C147.488 22.1546 147.934 23.0365 148.196 23.9838C148.457 24.9419 148.544 25.911 148.435 26.9018C148.326 27.8926 148.011 28.8508 147.499 29.7654C146.976 30.68 146.323 31.4421 145.528 32.0519C144.733 32.6616 143.851 33.0863 142.904 33.3585C141.946 33.6198 140.977 33.7069 139.986 33.598C138.995 33.4891 138.037 33.1734 137.123 32.6616L132.724 30.1791H132.713ZM136.339 29.1774L138.429 30.3533C139.017 30.6909 139.638 30.8869 140.28 30.9631C140.923 31.0284 141.565 30.9848 142.186 30.8106C142.806 30.6364 143.383 30.3642 143.906 29.9723C144.429 29.5803 144.864 29.0794 145.202 28.4806C145.539 27.8817 145.746 27.2611 145.811 26.6078C145.877 25.9654 145.822 25.323 145.648 24.7024C145.474 24.0818 145.191 23.5047 144.799 22.993C144.407 22.4812 143.917 22.0457 143.318 21.7082L141.227 20.5322L136.339 29.1774Z" fill="#6B5C56"/>
<path d="M144.919 37.4524L154.664 25.7259L162.013 31.8341L160.315 33.8811L155.001 29.4714L153.02 31.845L157.234 35.3401L155.535 37.3871L151.321 33.892L148.643 37.104L153.956 41.5137L152.258 43.5606L144.908 37.4524H144.919Z" fill="#6B5C56"/>
<path d="M153.761 44.9216L165.302 34.959L167.175 37.1366L163.473 48.8305L171.378 42.0036L173.109 44.0179L161.568 53.9805L159.695 51.8138L163.386 40.1091L155.481 46.9359L153.75 44.9216H153.761Z" fill="#6B5C56"/>
<path d="M181.917 57.639L179.663 59.0435L177.213 55.0802L166.51 61.7111L165.105 59.4573L175.809 52.8264L173.359 48.8631L175.613 47.4586L181.917 57.639Z" fill="#6B5C56"/>
</svg>
