<svg width="300" height="70" viewBox="0 0 300 70" fill="none" xmlns="http://www.w3.org/2000/svg">
<g clip-path="url(#clip0_762_10961)">
<path d="M68.0825 25.7842C70.5001 23.3666 72.8639 23.8599 75.0276 25.8721C76.9958 27.6987 80.2681 25.7695 79.4818 23.2054C79.2473 22.4387 78.7052 21.794 77.8114 21.2958C69.0202 16.4313 52.3462 33.2421 45.8554 42.9075C41.2742 49.7305 41.0251 45.6133 39.5892 42.0821C36.7565 35.0785 28.7369 15.9869 22.6124 22.0431C15.5403 29.0272 33.7333 54.1701 39.0715 58.6585C39.9994 59.435 41.3279 59.5034 42.3291 58.8245C46.5342 55.982 57.8261 48.1627 66.8957 40.2946C67.7699 39.5376 68.0727 38.3019 67.6332 37.2323C65.7675 32.6951 65.3768 28.4997 68.0923 25.7842H68.0825Z" fill="#FF7D24"/>
<path d="M129.685 11.3177C120.449 6.20415 93.4163 34.6242 88.249 44.1969C84.7912 50.5998 84.5714 45.2958 83.9609 43.4252C82.7301 39.6596 80.7423 34.2872 78.3101 30.1749C78.0073 29.662 77.2796 29.6279 76.923 30.1065C75.6385 31.8208 73.9633 33.6669 72.0341 35.5668C69.8559 37.7158 69.4163 41.1004 71.0476 43.6889C74.8962 49.8183 80.0146 55.601 82.5445 58.3214C83.4285 59.2738 84.8693 59.4398 85.9438 58.7072C94.7399 52.7439 140.029 17.0418 129.685 11.3177Z" fill="#69BCA0"/>
<path d="M41.1009 29.4324C40.5832 31.6888 42.0338 33.5057 44.3244 33.5057C46.4831 33.5057 48.4221 31.7035 49.1303 29.5008C49.8433 27.2981 48.3537 25.364 46.1461 25.364C43.9386 25.364 41.6186 27.176 41.1009 29.4324Z" fill="#97D4C5"/>
<path d="M85.1167 27.7767C84.5794 30.121 86.0837 32.0111 88.4622 32.0111C90.8407 32.0111 92.7162 30.1406 93.4586 27.85C94.2009 25.5594 92.6673 23.552 90.3572 23.552C88.0471 23.552 85.6539 25.4324 85.1167 27.7767Z" fill="#69BCA0"/>
</g>
<path d="M158.391 52.6252C156.115 52.6252 153.974 52.1763 151.971 51.2786C149.967 50.3649 148.204 49.1145 146.681 47.5275C145.174 45.9245 143.988 44.065 143.122 41.9489C142.272 39.8329 141.847 37.5726 141.847 35.1681C141.847 32.7635 142.272 30.5032 143.122 28.3872C143.988 26.2712 145.174 24.4197 146.681 22.8327C148.204 21.2297 149.967 19.9793 151.971 19.0816C153.974 18.1679 156.115 17.711 158.391 17.711C161.116 17.711 163.625 18.3442 165.917 19.6106C168.209 20.877 170.109 22.5602 171.616 24.6602L167.167 27.0407C166.126 25.7262 164.835 24.6762 163.296 23.8907C161.757 23.1052 160.122 22.7125 158.391 22.7125C156.788 22.7125 155.289 23.0411 153.894 23.6983C152.5 24.3556 151.273 25.2533 150.215 26.3914C149.157 27.5296 148.332 28.8521 147.739 30.359C147.146 31.8658 146.849 33.4689 146.849 35.1681C146.849 36.8833 147.146 38.4944 147.739 40.0013C148.332 41.4921 149.157 42.8146 150.215 43.9688C151.289 45.1069 152.524 46.0046 153.918 46.6619C155.313 47.3031 156.804 47.6237 158.391 47.6237C160.154 47.6237 161.797 47.231 163.32 46.4455C164.859 45.6439 166.142 44.5859 167.167 43.2715L171.616 45.7001C170.109 47.8 168.209 49.4832 165.917 50.7496C163.625 52 161.116 52.6252 158.391 52.6252ZM190.226 52.6252C187.533 52.6252 185.185 51.9679 183.181 50.6534C181.193 49.339 179.646 47.5756 178.54 45.3634C177.45 43.1352 176.905 40.6665 176.905 37.9574V18.3362H181.907V37.9574C181.907 39.7207 182.227 41.3398 182.868 42.8146C183.526 44.2734 184.472 45.4436 185.706 46.3252C186.956 47.1909 188.463 47.6237 190.226 47.6237C192.038 47.6237 193.561 47.1909 194.795 46.3252C196.029 45.4436 196.959 44.2734 197.584 42.8146C198.226 41.3398 198.546 39.7207 198.546 37.9574V18.3362H203.548V37.9574C203.548 39.9932 203.235 41.9009 202.61 43.6802C201.985 45.4436 201.087 46.9985 199.917 48.3451C198.747 49.6916 197.344 50.7416 195.709 51.495C194.074 52.2485 192.246 52.6252 190.226 52.6252ZM221.309 52.6252C219.466 52.6252 217.694 52.3366 215.995 51.7595C214.296 51.1824 212.813 50.3569 211.547 49.2828C210.28 48.1928 209.375 46.9023 208.829 45.4115L213.518 43.6562C213.791 44.4256 214.312 45.1149 215.081 45.7241C215.867 46.3172 216.797 46.7821 217.871 47.1187C218.961 47.4554 220.107 47.6237 221.309 47.6237C222.592 47.6237 223.794 47.4153 224.916 46.9985C226.054 46.5817 226.968 46.0046 227.657 45.2672C228.363 44.5298 228.715 43.6642 228.715 42.6703C228.715 41.6444 228.346 40.8028 227.609 40.1455C226.888 39.4883 225.958 38.9673 224.82 38.5826C223.698 38.1978 222.527 37.9093 221.309 37.7169C218.953 37.3322 216.837 36.7711 214.961 36.0337C213.102 35.2963 211.627 34.2624 210.537 32.9318C209.463 31.6013 208.926 29.87 208.926 27.738C208.926 25.7342 209.495 23.9869 210.633 22.4961C211.787 21.0052 213.302 19.851 215.178 19.0335C217.069 18.1999 219.113 17.7831 221.309 17.7831C223.121 17.7831 224.868 18.0717 226.551 18.6488C228.25 19.2098 229.741 20.0354 231.024 21.1255C232.322 22.1995 233.252 23.506 233.813 25.0449L229.076 26.7521C228.803 25.9666 228.282 25.2853 227.513 24.7083C226.743 24.1151 225.814 23.6502 224.724 23.3136C223.65 22.977 222.511 22.8087 221.309 22.8087C220.027 22.7926 218.824 23.001 217.702 23.4338C216.596 23.8506 215.69 24.4277 214.985 25.1651C214.28 25.9025 213.927 26.7601 213.927 27.738C213.927 28.9403 214.256 29.854 214.913 30.4792C215.57 31.1044 216.452 31.5693 217.558 31.8738C218.68 32.1624 219.931 32.4269 221.309 32.6673C223.521 33.02 225.565 33.6051 227.441 34.4227C229.332 35.2402 230.847 36.3303 231.985 37.6929C233.14 39.0394 233.717 40.6986 233.717 42.6703C233.717 44.6581 233.14 46.4054 231.985 47.9122C230.847 49.4031 229.332 50.5653 227.441 51.3989C225.565 52.2164 223.521 52.6252 221.309 52.6252ZM245.599 52L236.991 18.3362H242.137L248.437 43.031L254.713 18.3362H259.257L265.557 43.031L271.857 18.3362H277.003L268.443 52H262.696L256.997 29.7097L251.298 52H245.599Z" fill="#6B5C56"/>
<defs>
<clipPath id="clip0_762_10961">
<rect width="110.213" height="48.5861" fill="white" transform="translate(21 10.7069)"/>
</clipPath>
</defs>
</svg>
