<svg width="204" height="204" viewBox="0 0 204 204" fill="none" xmlns="http://www.w3.org/2000/svg">
<g clip-path="url(#clip0_762_10926)">
<path d="M96.9486 63.3689C99.7251 60.5924 102.447 61.1586 104.941 63.4669C107.205 65.5683 110.973 63.3471 110.058 60.3964C109.786 59.5145 109.165 58.7741 108.131 58.197C98.0157 52.6005 78.8417 71.9378 71.3724 83.0546C66.1026 90.905 65.8195 86.1686 64.1645 82.1074C60.898 74.061 51.6867 52.0997 44.6312 59.0681C36.4977 67.1035 57.4247 96.0224 63.5656 101.183C64.6327 102.076 66.157 102.152 67.3111 101.379C72.1455 98.1129 85.135 89.1193 95.5658 80.0604C96.5675 79.1893 96.916 77.763 96.4151 76.5326C94.2701 71.3172 93.8128 66.4829 96.9377 63.3689H96.9486Z" fill="#FF7D24"/>
<path d="M167.798 46.7318C157.171 40.8522 126.085 73.5384 120.14 84.5463C116.166 91.9067 115.916 85.8093 115.208 83.6535C113.793 79.32 111.506 73.1464 108.708 68.4101C108.359 67.8221 107.521 67.7786 107.107 68.3339C105.627 70.3046 103.699 72.4278 101.489 74.6163C98.9847 77.0879 98.4839 80.975 100.357 83.9584C104.788 91.0139 110.668 97.6556 113.575 100.791C114.587 101.88 116.242 102.076 117.484 101.238C127.61 94.3674 179.698 53.3083 167.809 46.7209L167.798 46.7318Z" fill="#69BCA0"/>
<path d="M65.8737 68.1379C65.3511 70.4135 66.8101 72.2427 69.1292 72.2427C71.3069 72.2427 73.2558 70.4244 73.9745 68.2032C74.6931 65.9821 73.1905 64.0331 70.9584 64.0331C68.7264 64.0331 66.3963 65.8623 65.8737 68.1379Z" fill="#97D4C5"/>
<path d="M116.536 65.6554C115.916 68.3557 117.647 70.5224 120.391 70.5224C123.134 70.5224 125.279 68.3666 126.14 65.7425C126.989 63.1076 125.225 60.7993 122.568 60.7993C119.912 60.7993 117.157 62.9661 116.536 65.6554Z" fill="#69BCA0"/>
<path d="M37.3023 130.658L39.5889 131.899C39.0336 132.683 38.3258 133.303 37.4657 133.772C36.6055 134.24 35.68 134.468 34.6783 134.468C33.5459 134.468 32.5116 134.174 31.5752 133.597C30.6388 133.009 29.8984 132.236 29.3431 131.245C28.7878 130.266 28.5156 129.177 28.5156 127.99C28.5156 127.086 28.6789 126.248 28.9947 125.464C29.3105 124.68 29.7569 123.994 30.3231 123.395C30.8892 122.796 31.5425 122.339 32.2829 122.001C33.0342 121.664 33.829 121.501 34.6674 121.501C35.6691 121.501 36.5946 121.74 37.4548 122.208C38.3149 122.677 39.0227 123.308 39.578 124.092L37.2915 125.333C36.943 124.919 36.5402 124.604 36.0829 124.386C35.6256 124.168 35.1465 124.059 34.6674 124.059C33.9924 124.059 33.3826 124.244 32.8382 124.604C32.2938 124.963 31.8583 125.453 31.5425 126.041C31.2268 126.64 31.0634 127.282 31.0634 127.99C31.0634 128.698 31.2268 129.34 31.5425 129.928C31.8583 130.527 32.2938 131.006 32.8382 131.365C33.3826 131.725 33.9924 131.91 34.6565 131.91C35.1683 131.91 35.6473 131.79 36.1047 131.561C36.562 131.333 36.9539 131.028 37.2697 130.647L37.3023 130.658Z" fill="#6B5C56"/>
<path d="M52.8947 126.433V134.153H50.336V127.054C50.336 126.498 50.2053 125.997 49.9331 125.551C49.6609 125.105 49.3125 124.745 48.8661 124.473C48.4196 124.201 47.9188 124.07 47.3526 124.07C46.7864 124.07 46.3182 124.201 45.8609 124.473C45.4145 124.745 45.0443 125.105 44.7721 125.551C44.4999 126.008 44.3693 126.509 44.3693 127.054V134.153H41.8105V115.675H44.3693V123.145C44.7939 122.633 45.3165 122.23 45.948 121.936C46.5687 121.642 47.2437 121.49 47.9732 121.49C48.8878 121.49 49.7153 121.708 50.4666 122.154C51.2179 122.6 51.8058 123.188 52.2414 123.94C52.6769 124.691 52.8947 125.518 52.8947 126.433Z" fill="#6B5C56"/>
<path d="M54.8644 129.536V121.838H57.4231V128.905C57.4231 129.46 57.5538 129.961 57.826 130.407C58.0982 130.864 58.4575 131.224 58.9148 131.485C59.3721 131.757 59.8621 131.888 60.4065 131.888C60.9509 131.888 61.4517 131.757 61.8981 131.485C62.3445 131.213 62.7039 130.854 62.9652 130.407C63.2374 129.961 63.368 129.46 63.368 128.905V121.838H65.9267V134.153H63.3789V132.824C62.9434 133.336 62.4208 133.739 61.8001 134.033C61.1795 134.327 60.5045 134.479 59.7967 134.479C58.8821 134.479 58.0546 134.261 57.3033 133.815C56.5521 133.369 55.9641 132.781 55.5177 132.029C55.0713 131.278 54.8535 130.451 54.8535 129.536H54.8644Z" fill="#6B5C56"/>
<path d="M68.4102 134.153V115.675H70.9689V134.153H68.4102Z" fill="#6B5C56"/>
<path d="M83.5114 121.838H86.0701V134.153H83.5005L83.4025 132.367C83.0432 132.999 82.5532 133.51 81.9326 133.891C81.312 134.272 80.5934 134.468 79.755 134.468C78.8513 134.468 78.002 134.294 77.2072 133.957C76.4123 133.619 75.7046 133.14 75.1058 132.53C74.5069 131.921 74.0278 131.224 73.6903 130.429C73.3528 129.634 73.1895 128.785 73.1895 127.87C73.1895 126.956 73.3528 126.161 73.6794 125.388C74.0061 124.615 74.4634 123.929 75.0513 123.352C75.6393 122.775 76.3143 122.306 77.0765 121.98C77.8496 121.642 78.6662 121.479 79.5481 121.479C80.4301 121.479 81.2358 121.686 81.9217 122.089C82.6077 122.491 83.1739 123.014 83.6312 123.646L83.5223 121.827L83.5114 121.838ZM79.6897 131.997C80.4083 131.997 81.0398 131.823 81.5842 131.463C82.1286 131.104 82.5424 130.625 82.8472 130.015C83.1521 129.405 83.2936 128.73 83.2936 127.99C83.2936 127.25 83.1412 126.564 82.8363 125.954C82.5315 125.344 82.1068 124.865 81.5733 124.506C81.0398 124.146 80.4083 123.972 79.6788 123.972C78.9493 123.972 78.3069 124.157 77.7189 124.517C77.131 124.876 76.6628 125.366 76.3143 125.965C75.9659 126.575 75.7917 127.25 75.7917 127.99C75.7917 128.73 75.9659 129.416 76.3252 130.015C76.6845 130.614 77.1527 131.104 77.7407 131.452C78.3287 131.812 78.971 131.986 79.6679 131.986L79.6897 131.997Z" fill="#6B5C56"/>
<path d="M98.1442 134.392C97.4909 134.349 96.8594 134.218 96.2496 134C95.629 133.782 95.0955 133.478 94.6273 133.096C94.1591 132.715 93.8216 132.269 93.582 131.746L95.7597 130.81C95.8685 131.028 96.0536 131.245 96.315 131.463C96.5763 131.681 96.892 131.855 97.2622 131.986C97.6215 132.117 98.0026 132.193 98.3946 132.193C98.7866 132.193 99.135 132.138 99.4725 132.029C99.81 131.921 100.082 131.746 100.289 131.518C100.507 131.289 100.605 131.017 100.605 130.69C100.605 130.331 100.485 130.048 100.246 129.852C100.006 129.656 99.7012 129.492 99.3419 129.394C98.9825 129.286 98.6232 129.188 98.253 129.09C97.4473 128.905 96.7069 128.665 96.0428 128.349C95.3786 128.033 94.8451 127.631 94.4531 127.13C94.0611 126.629 93.8651 126.019 93.8651 125.301C93.8651 124.517 94.0829 123.831 94.5075 123.254C94.9322 122.677 95.4983 122.23 96.1843 121.914C96.8811 121.599 97.6215 121.446 98.4055 121.446C99.3963 121.446 100.289 121.653 101.117 122.078C101.933 122.491 102.565 123.068 103 123.798L100.964 125.007C100.844 124.756 100.659 124.538 100.409 124.342C100.158 124.146 99.8863 123.983 99.5705 123.863C99.2547 123.744 98.939 123.678 98.6015 123.656C98.1877 123.635 97.7957 123.689 97.4364 123.798C97.0771 123.907 96.794 124.081 96.5763 124.321C96.3585 124.56 96.2605 124.865 96.2605 125.235C96.2605 125.605 96.3912 125.867 96.6416 126.041C96.892 126.215 97.2187 126.357 97.6106 126.466C98.0026 126.574 98.4055 126.694 98.8083 126.825C99.5378 127.054 100.224 127.337 100.866 127.663C101.509 128.001 102.02 128.404 102.423 128.894C102.815 129.384 103.011 129.972 102.989 130.668C102.989 131.441 102.761 132.117 102.293 132.704C101.824 133.292 101.226 133.728 100.485 134.033C99.7447 134.338 98.9608 134.468 98.1333 134.414L98.1442 134.392Z" fill="#6B5C56"/>
<path d="M111.612 124.397H109.021V134.153H106.451V124.397H104.502V121.838H106.462V117.973H109.01V121.838H111.612V124.397Z" fill="#6B5C56"/>
<path d="M113.323 129.536V121.838H115.882V128.905C115.882 129.46 116.013 129.961 116.285 130.407C116.557 130.864 116.916 131.224 117.374 131.485C117.831 131.757 118.321 131.888 118.865 131.888C119.41 131.888 119.911 131.757 120.357 131.485C120.804 131.213 121.163 130.854 121.424 130.407C121.696 129.961 121.827 129.46 121.827 128.905V121.838H124.386V134.153H121.838V132.824C121.402 133.336 120.88 133.739 120.259 134.033C119.639 134.327 118.963 134.479 118.256 134.479C117.341 134.479 116.514 134.261 115.762 133.815C115.011 133.369 114.423 132.781 113.977 132.029C113.53 131.278 113.312 130.451 113.312 129.536H113.323Z" fill="#6B5C56"/>
<path d="M136.472 115.675H139.03V134.153H136.472V132.345C136.069 132.988 135.546 133.499 134.893 133.891C134.239 134.283 133.488 134.479 132.617 134.479C131.746 134.479 130.886 134.316 130.102 133.978C129.318 133.641 128.632 133.173 128.033 132.585C127.434 131.997 126.966 131.3 126.64 130.516C126.302 129.732 126.139 128.894 126.139 128.001C126.139 127.108 126.302 126.27 126.64 125.486C126.977 124.702 127.445 124.016 128.033 123.417C128.621 122.818 129.318 122.361 130.102 122.023C130.886 121.686 131.724 121.522 132.617 121.522C133.51 121.522 134.25 121.718 134.893 122.11C135.546 122.502 136.069 123.014 136.472 123.646V115.697V115.675ZM132.639 131.997C133.358 131.997 133.989 131.823 134.533 131.463C135.078 131.104 135.492 130.625 135.796 130.015C136.101 129.405 136.243 128.73 136.243 127.99C136.243 127.25 136.09 126.564 135.786 125.954C135.481 125.344 135.056 124.865 134.523 124.506C133.989 124.146 133.358 123.972 132.628 123.972C131.898 123.972 131.267 124.157 130.679 124.517C130.091 124.876 129.623 125.366 129.274 125.965C128.926 126.574 128.752 127.25 128.752 127.99C128.752 128.73 128.926 129.416 129.285 130.015C129.645 130.614 130.113 131.104 130.701 131.452C131.289 131.812 131.931 131.986 132.628 131.986L132.639 131.997Z" fill="#6B5C56"/>
<path d="M147.413 134.479C146.28 134.479 145.246 134.185 144.31 133.608C143.373 133.02 142.633 132.247 142.078 131.256C141.522 130.276 141.25 129.188 141.25 128.001C141.25 127.097 141.413 126.259 141.729 125.475C142.045 124.691 142.491 124.005 143.057 123.406C143.624 122.807 144.277 122.35 145.017 122.012C145.769 121.675 146.563 121.511 147.402 121.511C148.349 121.511 149.209 121.707 150.004 122.099C150.799 122.491 151.463 123.025 152.029 123.711C152.585 124.397 152.998 125.181 153.26 126.074C153.521 126.966 153.597 127.914 153.488 128.915H143.994C144.103 129.482 144.31 129.993 144.614 130.451C144.919 130.908 145.322 131.267 145.801 131.529C146.28 131.79 146.814 131.931 147.413 131.931C148.033 131.931 148.61 131.779 149.122 131.463C149.634 131.147 150.058 130.723 150.385 130.168L152.987 130.766C152.497 131.855 151.746 132.748 150.755 133.445C149.765 134.142 148.654 134.49 147.413 134.49V134.479ZM143.918 126.945H150.919C150.832 126.357 150.625 125.812 150.298 125.333C149.961 124.854 149.547 124.473 149.057 124.19C148.567 123.907 148.012 123.765 147.424 123.765C146.836 123.765 146.302 123.907 145.801 124.179C145.3 124.462 144.898 124.843 144.571 125.322C144.244 125.801 144.026 126.346 143.928 126.945H143.918Z" fill="#6B5C56"/>
<path d="M166.848 126.433V134.153H164.289V127.054C164.289 126.498 164.158 125.997 163.886 125.551C163.614 125.105 163.266 124.745 162.819 124.473C162.373 124.201 161.872 124.07 161.306 124.07C160.74 124.07 160.271 124.201 159.814 124.473C159.368 124.745 158.997 125.105 158.725 125.551C158.453 126.008 158.322 126.509 158.322 127.054V134.153H155.764V121.838H158.322V123.145C158.747 122.633 159.27 122.23 159.901 121.936C160.522 121.642 161.197 121.49 161.926 121.49C162.841 121.49 163.668 121.708 164.42 122.154C165.171 122.6 165.759 123.188 166.195 123.94C166.63 124.691 166.848 125.518 166.848 126.433Z" fill="#6B5C56"/>
<path d="M175.811 124.397H173.22V134.153H170.65V124.397H168.701V121.838H170.661V117.973H173.209V121.838H175.811V124.397Z" fill="#6B5C56"/>
<path d="M102.001 202.911C157.733 202.911 202.912 157.732 202.912 102C202.912 46.2683 157.733 1.08881 102.001 1.08881C46.2693 1.08881 1.08984 46.2683 1.08984 102C1.08984 157.732 46.2693 202.911 102.001 202.911Z" stroke="#6B5C56" stroke-width="2.17763" stroke-miterlimit="10" stroke-linecap="round"/>
<path d="M62.194 160.894H59.6461L55.5195 148.579H58.0347L60.9418 157.225L63.8272 148.579H66.4185L69.3039 157.225L72.2001 148.579H74.7153L70.5996 160.894H68.03L65.1229 152.183L62.2157 160.894H62.194Z" fill="#6B5C56"/>
<path d="M82.3385 161.21C81.2061 161.21 80.1717 160.916 79.2353 160.339C78.299 159.751 77.5586 158.978 77.0033 157.987C76.448 157.007 76.1758 155.918 76.1758 154.731C76.1758 153.828 76.3391 152.989 76.6549 152.205C76.9706 151.421 77.417 150.735 77.9832 150.136C78.5494 149.538 79.2027 149.08 79.9431 148.743C80.6944 148.405 81.4892 148.242 82.3276 148.242C83.2748 148.242 84.135 148.438 84.9298 148.83C85.7247 149.222 86.3888 149.755 86.955 150.441C87.5103 151.127 87.9241 151.911 88.1854 152.804C88.4467 153.697 88.5229 154.644 88.414 155.646H78.9196C79.0285 156.212 79.2354 156.724 79.5402 157.181C79.8451 157.638 80.2479 157.998 80.727 158.259C81.2061 158.52 81.7396 158.662 82.3385 158.662C82.9591 158.662 83.5362 158.509 84.0479 158.194C84.5596 157.878 84.9843 157.453 85.3109 156.898L87.9132 157.497C87.4232 158.586 86.6719 159.478 85.6811 160.175C84.6903 160.872 83.5797 161.221 82.3385 161.221V161.21ZM78.8434 153.675H85.8444C85.7573 153.087 85.5505 152.543 85.2238 152.064C84.8863 151.585 84.4725 151.203 83.9826 150.92C83.4926 150.637 82.9373 150.496 82.3493 150.496C81.7614 150.496 81.2279 150.637 80.727 150.909C80.2262 151.193 79.8233 151.574 79.4967 152.053C79.17 152.532 78.9523 153.076 78.8543 153.675H78.8434Z" fill="#6B5C56"/>
<path d="M90.6895 160.894V142.417H93.2482V160.894H90.6895Z" fill="#6B5C56"/>
<path d="M96.207 160.894V142.417H98.7657V160.894H96.207Z" fill="#6B5C56"/>
<path d="M112.813 153.174V160.894H110.254V153.795C110.254 153.24 110.123 152.739 109.851 152.292C109.579 151.846 109.23 151.487 108.784 151.214C108.338 150.942 107.837 150.811 107.271 150.811C106.704 150.811 106.236 150.942 105.779 151.214C105.332 151.487 104.962 151.846 104.69 152.292C104.418 152.75 104.287 153.25 104.287 153.795V160.894H101.729V148.579H104.287V149.886C104.712 149.374 105.234 148.971 105.866 148.677C106.487 148.383 107.162 148.231 107.891 148.231C108.806 148.231 109.633 148.449 110.385 148.895C111.136 149.342 111.724 149.93 112.159 150.681C112.595 151.432 112.813 152.26 112.813 153.174Z" fill="#6B5C56"/>
<path d="M120.696 161.21C119.564 161.21 118.529 160.916 117.593 160.339C116.656 159.751 115.916 158.978 115.361 157.987C114.805 157.007 114.533 155.918 114.533 154.731C114.533 153.828 114.697 152.989 115.012 152.205C115.328 151.421 115.774 150.735 116.341 150.136C116.907 149.538 117.56 149.08 118.3 148.743C119.052 148.405 119.847 148.242 120.685 148.242C121.632 148.242 122.492 148.438 123.287 148.83C124.082 149.222 124.746 149.755 125.312 150.441C125.868 151.127 126.281 151.911 126.543 152.804C126.804 153.697 126.88 154.644 126.771 155.646H117.277C117.386 156.212 117.593 156.724 117.898 157.181C118.202 157.638 118.605 157.998 119.084 158.259C119.564 158.52 120.097 158.662 120.696 158.662C121.317 158.662 121.894 158.509 122.405 158.194C122.917 157.878 123.342 157.453 123.668 156.898L126.271 157.497C125.781 158.586 125.029 159.478 124.039 160.175C123.048 160.872 121.937 161.221 120.696 161.221V161.21ZM117.201 153.675H124.202C124.115 153.087 123.908 152.543 123.581 152.064C123.244 151.585 122.83 151.203 122.34 150.92C121.85 150.637 121.295 150.496 120.707 150.496C120.119 150.496 119.585 150.637 119.084 150.909C118.584 151.193 118.181 151.574 117.854 152.053C117.527 152.532 117.31 153.076 117.212 153.675H117.201Z" fill="#6B5C56"/>
<path d="M132.738 161.123C132.085 161.079 131.453 160.948 130.843 160.731C130.223 160.513 129.689 160.208 129.221 159.827C128.753 159.446 128.415 158.999 128.176 158.477L130.353 157.54C130.462 157.758 130.647 157.976 130.909 158.194C131.17 158.411 131.486 158.586 131.856 158.716C132.215 158.847 132.596 158.923 132.988 158.923C133.38 158.923 133.729 158.869 134.066 158.76C134.404 158.651 134.676 158.477 134.883 158.248C135.101 158.019 135.199 157.747 135.199 157.421C135.199 157.061 135.079 156.778 134.839 156.582C134.6 156.386 134.295 156.223 133.936 156.125C133.576 156.016 133.217 155.918 132.847 155.82C132.041 155.635 131.301 155.395 130.637 155.08C129.972 154.764 129.439 154.361 129.047 153.86C128.655 153.359 128.459 152.75 128.459 152.031C128.459 151.247 128.677 150.561 129.101 149.984C129.526 149.407 130.092 148.961 130.778 148.645C131.475 148.329 132.215 148.177 132.999 148.177C133.99 148.177 134.883 148.383 135.71 148.808C136.527 149.222 137.158 149.799 137.594 150.528L135.558 151.737C135.438 151.487 135.253 151.269 135.003 151.073C134.752 150.877 134.48 150.714 134.164 150.594C133.848 150.474 133.533 150.409 133.195 150.387C132.781 150.365 132.389 150.42 132.03 150.528C131.671 150.637 131.388 150.812 131.17 151.051C130.952 151.291 130.854 151.595 130.854 151.966C130.854 152.336 130.985 152.597 131.235 152.771C131.486 152.946 131.812 153.087 132.204 153.196C132.596 153.305 132.999 153.425 133.402 153.555C134.132 153.784 134.818 154.067 135.46 154.394C136.102 154.731 136.614 155.134 137.017 155.624C137.409 156.114 137.605 156.702 137.583 157.399C137.583 158.172 137.354 158.847 136.886 159.435C136.418 160.023 135.819 160.458 135.079 160.763C134.338 161.068 133.555 161.199 132.727 161.144L132.738 161.123Z" fill="#6B5C56"/>
<path d="M143.396 161.123C142.743 161.079 142.111 160.948 141.502 160.731C140.881 160.513 140.347 160.208 139.879 159.827C139.411 159.446 139.074 158.999 138.834 158.477L141.012 157.54C141.12 157.758 141.306 157.976 141.567 158.194C141.828 158.411 142.144 158.586 142.514 158.716C142.873 158.847 143.255 158.923 143.647 158.923C144.038 158.923 144.387 158.869 144.724 158.76C145.062 158.651 145.334 158.477 145.541 158.248C145.759 158.019 145.857 157.747 145.857 157.421C145.857 157.061 145.737 156.778 145.498 156.582C145.258 156.386 144.953 156.223 144.594 156.125C144.234 156.016 143.875 155.918 143.505 155.82C142.699 155.635 141.959 155.395 141.295 155.08C140.631 154.764 140.097 154.361 139.705 153.86C139.313 153.359 139.117 152.75 139.117 152.031C139.117 151.247 139.335 150.561 139.759 149.984C140.184 149.407 140.75 148.961 141.436 148.645C142.133 148.329 142.873 148.177 143.657 148.177C144.648 148.177 145.541 148.383 146.369 148.808C147.185 149.222 147.817 149.799 148.252 150.528L146.216 151.737C146.096 151.487 145.911 151.269 145.661 151.073C145.41 150.877 145.138 150.714 144.822 150.594C144.507 150.474 144.191 150.409 143.853 150.387C143.44 150.365 143.048 150.42 142.688 150.528C142.329 150.637 142.046 150.812 141.828 151.051C141.61 151.291 141.512 151.595 141.512 151.966C141.512 152.336 141.643 152.597 141.894 152.771C142.144 152.946 142.471 153.087 142.863 153.196C143.255 153.305 143.657 153.425 144.06 153.555C144.79 153.784 145.476 154.067 146.118 154.394C146.761 154.731 147.272 155.134 147.675 155.624C148.067 156.114 148.263 156.702 148.241 157.399C148.241 158.172 148.013 158.847 147.544 159.435C147.076 160.023 146.477 160.458 145.737 160.763C144.997 161.068 144.213 161.199 143.385 161.144L143.396 161.123Z" fill="#6B5C56"/>
<path d="M50.2171 155.374H30.3027" stroke="#6B5C56" stroke-width="2.17763" stroke-miterlimit="10" stroke-linecap="round"/>
<path d="M174.025 155.374H154.1" stroke="#6B5C56" stroke-width="2.17763" stroke-miterlimit="10" stroke-linecap="round"/>
</g>
<defs>
<clipPath id="clip0_762_10926">
<rect width="204" height="204" fill="white"/>
</clipPath>
</defs>
</svg>
