<svg width="620" height="70" viewBox="0 0 620 70" fill="none" xmlns="http://www.w3.org/2000/svg">
<g clip-path="url(#clip0_762_10960)">
<path d="M48.2049 26.7389C50.372 24.5718 52.491 25.0139 54.4304 26.8177C56.1948 28.4551 59.128 26.7257 58.4232 24.4273C58.213 23.7399 57.7271 23.162 56.9259 22.7155C49.0455 18.355 34.0989 33.4241 28.2805 42.0882C24.1739 48.2043 23.9507 44.5136 22.6635 41.3483C20.1243 35.0702 12.9356 17.9566 7.44553 23.3853C1.10616 29.6459 17.4143 52.1839 22.1995 56.2073C23.0313 56.9034 24.2221 56.9647 25.1196 56.3562C28.8891 53.8081 39.011 46.7989 47.141 39.746C47.9247 39.0674 48.1961 37.9597 47.8021 37.0009C46.1297 32.9338 45.7795 29.173 48.2136 26.7389H48.2049Z" fill="#FF7D24"/>
<path d="M103.426 13.7712C95.1471 9.18744 70.9148 34.6631 66.2829 43.244C63.1832 48.9836 62.9862 44.2291 62.439 42.5523C61.3357 39.1769 59.5538 34.361 57.3736 30.6748C57.1022 30.2151 56.4498 30.1844 56.1302 30.6135C54.9788 32.1501 53.4772 33.805 51.7478 35.5081C49.7952 37.4344 49.4012 40.4684 50.8635 42.7887C54.3134 48.2831 58.9015 53.4667 61.1693 55.9053C61.9618 56.759 63.2533 56.9078 64.2164 56.2511C72.1012 50.9056 112.699 18.9023 103.426 13.7712Z" fill="#69BCA0"/>
<path d="M24.0178 30.0092C23.5537 32.0319 24.854 33.6605 26.9073 33.6605C28.8424 33.6605 30.5805 32.045 31.2153 30.0705C31.8545 28.096 30.5192 26.3623 28.5403 26.3623C26.5614 26.3623 24.4819 27.9866 24.0178 30.0092Z" fill="#97D4C5"/>
<path d="M63.4745 28.5251C62.9929 30.6265 64.3414 32.3208 66.4735 32.3208C68.6056 32.3208 70.2867 30.644 70.9522 28.5907C71.6176 26.5374 70.2429 24.7381 68.1721 24.7381C66.1013 24.7381 63.9561 26.4236 63.4745 28.5251Z" fill="#69BCA0"/>
</g>
<path d="M134.089 52.6232C131.82 52.6232 129.687 52.1758 127.69 51.281C125.692 50.3702 123.935 49.1238 122.417 47.542C120.915 45.9441 119.732 44.0906 118.869 41.9814C118.023 39.8722 117.599 37.6192 117.599 35.2224C117.599 32.8256 118.023 30.5727 118.869 28.4635C119.732 26.3543 120.915 24.5088 122.417 22.9269C123.935 21.329 125.692 20.0827 127.69 19.1879C129.687 18.2771 131.82 17.8217 134.089 17.8217C136.805 17.8217 139.306 18.4529 141.591 19.7152C143.876 20.9775 145.769 22.6552 147.271 24.7484L142.837 27.1213C141.799 25.811 140.512 24.7644 138.978 23.9815C137.445 23.1985 135.815 22.807 134.089 22.807C132.491 22.807 130.997 23.1346 129.607 23.7897C128.217 24.4449 126.995 25.3397 125.94 26.4741C124.885 27.6086 124.062 28.9269 123.471 30.4288C122.88 31.9308 122.584 33.5287 122.584 35.2224C122.584 36.9322 122.88 38.538 123.471 40.04C124.062 41.526 124.885 42.8442 125.94 43.9947C127.01 45.1292 128.241 46.024 129.631 46.6791C131.021 47.3183 132.507 47.6378 134.089 47.6378C135.847 47.6378 137.484 47.2464 139.002 46.4634C140.536 45.6645 141.815 44.6099 142.837 43.2996L147.271 45.7204C145.769 47.8136 143.876 49.4914 141.591 50.7537C139.306 52 136.805 52.6232 134.089 52.6232ZM173.506 36.9721V52H168.521V38.1945C168.521 37.1239 168.257 36.1492 167.73 35.2704C167.219 34.3915 166.524 33.6965 165.645 33.1852C164.782 32.6579 163.807 32.3942 162.721 32.3942C161.666 32.3942 160.699 32.6579 159.82 33.1852C158.942 33.6965 158.239 34.3915 157.711 35.2704C157.184 36.1492 156.92 37.1239 156.92 38.1945V52H151.935V16.0481H156.92V30.5727C157.751 29.582 158.774 28.799 159.988 28.2238C161.203 27.6486 162.513 27.361 163.919 27.361C165.693 27.361 167.306 27.7924 168.761 28.6552C170.215 29.5181 171.365 30.6765 172.212 32.1306C173.075 33.5846 173.506 35.1985 173.506 36.9721ZM177.332 43.012V28.0321H182.317V41.7897C182.317 42.8602 182.581 43.8349 183.108 44.7137C183.635 45.5926 184.338 46.2956 185.217 46.8229C186.096 47.3342 187.063 47.5899 188.117 47.5899C189.188 47.5899 190.155 47.3342 191.017 46.8229C191.896 46.2956 192.591 45.5926 193.103 44.7137C193.63 43.8349 193.894 42.8602 193.894 41.7897V28.0321H198.879L198.903 52H193.918L193.894 49.4115C193.079 50.4021 192.064 51.1851 190.85 51.7603C189.635 52.3356 188.333 52.6232 186.943 52.6232C185.169 52.6232 183.555 52.1917 182.101 51.3289C180.647 50.4661 179.489 49.3076 178.626 47.8535C177.763 46.3995 177.332 44.7856 177.332 43.012ZM203.897 52V16.0481H208.882V52H203.897ZM232.936 28.0321H237.922V52H232.912L232.72 48.5246C232.017 49.755 231.067 50.7457 229.868 51.4967C228.67 52.2477 227.256 52.6232 225.626 52.6232C223.868 52.6232 222.215 52.2956 220.665 51.6405C219.115 50.9694 217.749 50.0426 216.566 48.8602C215.4 47.6778 214.489 46.3196 213.834 44.7856C213.179 43.2357 212.851 41.5739 212.851 39.8003C212.851 38.0906 213.171 36.4847 213.81 34.9828C214.449 33.4648 215.336 32.1386 216.47 31.0041C217.605 29.8696 218.915 28.9828 220.401 28.3436C221.903 27.6885 223.509 27.361 225.219 27.361C226.96 27.361 228.494 27.7604 229.82 28.5593C231.163 29.3423 232.273 30.349 233.152 31.5793L232.936 28.0321ZM225.506 47.8056C226.912 47.8056 228.143 47.4621 229.197 46.775C230.252 46.0719 231.067 45.1292 231.642 43.9468C232.233 42.7644 232.529 41.4541 232.529 40.016C232.529 38.562 232.233 37.2437 231.642 36.0613C231.051 34.8789 230.228 33.9441 229.173 33.2571C228.135 32.554 226.912 32.2025 225.506 32.2025C224.116 32.2025 222.846 32.554 221.695 33.2571C220.545 33.9601 219.634 34.9029 218.963 36.0853C218.292 37.2677 217.956 38.578 217.956 40.016C217.956 41.4701 218.3 42.7883 218.987 43.9707C219.69 45.1372 220.609 46.0719 221.743 46.775C222.894 47.4621 224.148 47.8056 225.506 47.8056ZM266.18 52.6232C264.343 52.6232 262.577 52.3356 260.883 51.7603C259.189 51.1851 257.711 50.3622 256.449 49.2916C255.187 48.2051 254.284 46.9188 253.741 45.4328L258.414 43.6831C258.686 44.4501 259.205 45.1372 259.972 45.7444C260.755 46.3356 261.682 46.799 262.753 47.1345C263.839 47.4701 264.982 47.6378 266.18 47.6378C267.458 47.6378 268.657 47.4301 269.775 47.0147C270.91 46.5992 271.821 46.024 272.508 45.289C273.211 44.554 273.562 43.6911 273.562 42.7004C273.562 41.6778 273.195 40.8389 272.46 40.1838C271.741 39.5287 270.814 39.0094 269.679 38.6259C268.561 38.2424 267.394 37.9548 266.18 37.763C263.831 37.3796 261.722 36.8203 259.853 36.0853C257.999 35.3503 256.529 34.3196 255.442 32.9934C254.372 31.6672 253.837 29.9415 253.837 27.8163C253.837 25.819 254.404 24.0773 255.538 22.5913C256.689 21.1053 258.199 19.9549 260.068 19.1399C261.954 18.3091 263.991 17.8936 266.18 17.8936C267.986 17.8936 269.727 18.1812 271.405 18.7565C273.099 19.3157 274.585 20.1386 275.863 21.2252C277.157 22.2957 278.084 23.598 278.643 25.1319L273.922 26.8337C273.65 26.0507 273.131 25.3716 272.364 24.7964C271.597 24.2052 270.67 23.7418 269.584 23.4062C268.513 23.0707 267.379 22.9029 266.18 22.9029C264.902 22.8869 263.703 23.0947 262.585 23.5261C261.482 23.9415 260.58 24.5168 259.877 25.2518C259.173 25.9868 258.822 26.8416 258.822 27.8163C258.822 29.0147 259.15 29.9255 259.805 30.5487C260.46 31.1719 261.339 31.6352 262.441 31.9388C263.56 32.2264 264.806 32.4901 266.18 32.7298C268.385 33.0813 270.422 33.6645 272.292 34.4794C274.177 35.2943 275.687 36.3809 276.822 37.7391C277.972 39.0813 278.548 40.7351 278.548 42.7004C278.548 44.6818 277.972 46.4235 276.822 47.9254C275.687 49.4115 274.177 50.5699 272.292 51.4008C270.422 52.2157 268.385 52.6232 266.18 52.6232ZM296.133 33.0174H291.1L291.076 52H286.09L286.114 33.0174H282.303V28.0321H286.114L286.09 20.5061H291.076L291.1 28.0321H296.133V33.0174ZM299.465 43.012V28.0321H304.451V41.7897C304.451 42.8602 304.714 43.8349 305.242 44.7137C305.769 45.5926 306.472 46.2956 307.351 46.8229C308.23 47.3342 309.196 47.5899 310.251 47.5899C311.321 47.5899 312.288 47.3342 313.151 46.8229C314.03 46.2956 314.725 45.5926 315.236 44.7137C315.763 43.8349 316.027 42.8602 316.027 41.7897V28.0321H321.012L321.036 52H316.051L316.027 49.4115C315.212 50.4021 314.198 51.1851 312.983 51.7603C311.769 52.3356 310.467 52.6232 309.076 52.6232C307.303 52.6232 305.689 52.1917 304.235 51.3289C302.781 50.4661 301.622 49.3076 300.759 47.8535C299.897 46.3995 299.465 44.7856 299.465 43.012ZM344.186 16.0481H349.172V52H344.186V48.4767C343.403 49.723 342.381 50.7297 341.119 51.4967C339.856 52.2477 338.378 52.6232 336.684 52.6232C334.943 52.6232 333.313 52.2956 331.795 51.6405C330.277 50.9854 328.935 50.0826 327.768 48.9321C326.618 47.7657 325.715 46.4235 325.06 44.9055C324.405 43.3875 324.077 41.7577 324.077 40.016C324.077 38.2744 324.405 36.6445 325.06 35.1266C325.715 33.5926 326.618 32.2504 327.768 31.1C328.935 29.9335 330.277 29.0227 331.795 28.3676C333.313 27.7125 334.943 27.3849 336.684 27.3849C338.378 27.3849 339.856 27.7684 341.119 28.5354C342.381 29.2864 343.403 30.2771 344.186 31.5074V16.0481ZM336.732 47.8056C338.138 47.8056 339.369 47.4621 340.423 46.775C341.478 46.0719 342.293 45.1292 342.868 43.9468C343.459 42.7644 343.755 41.4541 343.755 40.016C343.755 38.562 343.459 37.2437 342.868 36.0613C342.277 34.8789 341.454 33.9441 340.399 33.2571C339.361 32.554 338.138 32.2025 336.732 32.2025C335.342 32.2025 334.072 32.554 332.921 33.2571C331.787 33.9601 330.876 34.9029 330.189 36.0853C329.518 37.2677 329.182 38.578 329.182 40.016C329.182 41.4701 329.526 42.7883 330.213 43.9707C330.916 45.1372 331.835 46.0719 332.969 46.775C334.12 47.4621 335.374 47.8056 336.732 47.8056ZM365.132 52.6232C362.927 52.6232 360.913 52.0559 359.092 50.9214C357.286 49.787 355.84 48.269 354.754 46.3675C353.683 44.4501 353.148 42.3329 353.148 40.016C353.148 38.2584 353.459 36.6206 354.083 35.1026C354.706 33.5686 355.561 32.2264 356.647 31.076C357.75 29.9095 359.028 28.9988 360.482 28.3436C361.936 27.6885 363.486 27.361 365.132 27.361C366.969 27.361 368.655 27.7444 370.189 28.5114C371.723 29.2624 373.033 30.309 374.12 31.6512C375.206 32.9774 376.005 34.5114 376.517 36.2531C377.028 37.9788 377.18 39.8163 376.972 41.7657H358.493C358.7 42.8682 359.1 43.8669 359.691 44.7617C360.298 45.6405 361.065 46.3356 361.992 46.8469C362.935 47.3582 363.981 47.6219 365.132 47.6378C366.346 47.6378 367.449 47.3342 368.439 46.7271C369.446 46.1199 370.269 45.281 370.908 44.2104L375.965 45.3848C375.007 47.51 373.56 49.2517 371.627 50.6099C369.694 51.9521 367.529 52.6232 365.132 52.6232ZM358.325 37.9548H371.939C371.779 36.8043 371.371 35.7657 370.716 34.839C370.077 33.8962 369.27 33.1532 368.296 32.6099C367.337 32.0507 366.282 31.7711 365.132 31.7711C363.997 31.7711 362.943 32.0427 361.968 32.586C361.009 33.1292 360.21 33.8722 359.571 34.815C358.948 35.7417 358.533 36.7883 358.325 37.9548ZM402.512 36.9721V52H397.527V38.1945C397.527 37.1239 397.263 36.1492 396.736 35.2704C396.225 34.3915 395.53 33.6965 394.651 33.1852C393.788 32.6579 392.813 32.3942 391.727 32.3942C390.672 32.3942 389.706 32.6579 388.827 33.1852C387.948 33.6965 387.245 34.3915 386.718 35.2704C386.19 36.1492 385.927 37.1239 385.927 38.1945V52H380.941V28.0321H385.927V30.5727C386.757 29.582 387.78 28.799 388.994 28.2238C390.209 27.6486 391.519 27.361 392.925 27.361C394.699 27.361 396.313 27.7924 397.767 28.6552C399.221 29.5181 400.371 30.6765 401.218 32.1306C402.081 33.5846 402.512 35.1985 402.512 36.9721ZM419.952 33.0174H414.918L414.894 52H409.909L409.933 33.0174H406.122V28.0321H409.933L409.909 20.5061H414.894L414.918 28.0321H419.952V33.0174ZM443.141 52L434.56 18.4449H439.689L445.969 43.06L452.225 18.4449H456.754L463.034 43.06L469.314 18.4449H474.443L465.91 52H460.182L454.502 29.7817L448.821 52H443.141ZM486.048 52.6232C483.843 52.6232 481.83 52.0559 480.008 50.9214C478.203 49.787 476.757 48.269 475.67 46.3675C474.599 44.4501 474.064 42.3329 474.064 40.016C474.064 38.2584 474.376 36.6206 474.999 35.1026C475.622 33.5686 476.477 32.2264 477.564 31.076C478.666 29.9095 479.944 28.9988 481.398 28.3436C482.852 27.6885 484.402 27.361 486.048 27.361C487.886 27.361 489.571 27.7444 491.105 28.5114C492.639 29.2624 493.95 30.309 495.036 31.6512C496.123 32.9774 496.922 34.5114 497.433 36.2531C497.944 37.9788 498.096 39.8163 497.888 41.7657H479.409C479.617 42.8682 480.016 43.8669 480.607 44.7617C481.215 45.6405 481.982 46.3356 482.908 46.8469C483.851 47.3582 484.898 47.6219 486.048 47.6378C487.263 47.6378 488.365 47.3342 489.356 46.7271C490.362 46.1199 491.185 45.281 491.824 44.2104L496.882 45.3848C495.923 47.51 494.477 49.2517 492.543 50.6099C490.61 51.9521 488.445 52.6232 486.048 52.6232ZM479.241 37.9548H492.855C492.695 36.8043 492.288 35.7657 491.633 34.839C490.994 33.8962 490.187 33.1532 489.212 32.6099C488.253 32.0507 487.199 31.7711 486.048 31.7711C484.914 31.7711 483.859 32.0427 482.884 32.586C481.926 33.1292 481.127 33.8722 480.488 34.815C479.864 35.7417 479.449 36.7883 479.241 37.9548ZM501.53 52V16.0481H506.515V52H501.53ZM512.25 52V16.0481H517.235V52H512.25ZM544.541 36.9721V52H539.556V38.1945C539.556 37.1239 539.292 36.1492 538.765 35.2704C538.254 34.3915 537.559 33.6965 536.68 33.1852C535.817 32.6579 534.842 32.3942 533.756 32.3942C532.701 32.3942 531.734 32.6579 530.856 33.1852C529.977 33.6965 529.274 34.3915 528.746 35.2704C528.219 36.1492 527.955 37.1239 527.955 38.1945V52H522.97V28.0321H527.955V30.5727C528.786 29.582 529.809 28.799 531.023 28.2238C532.238 27.6486 533.548 27.361 534.954 27.361C536.728 27.361 538.341 27.7924 539.796 28.6552C541.25 29.5181 542.4 30.6765 543.247 32.1306C544.11 33.5846 544.541 35.1985 544.541 36.9721ZM559.403 52.6232C557.198 52.6232 555.185 52.0559 553.363 50.9214C551.558 49.787 550.112 48.269 549.025 46.3675C547.955 44.4501 547.419 42.3329 547.419 40.016C547.419 38.2584 547.731 36.6206 548.354 35.1026C548.977 33.5686 549.832 32.2264 550.919 31.076C552.021 29.9095 553.299 28.9988 554.753 28.3436C556.207 27.6885 557.757 27.361 559.403 27.361C561.241 27.361 562.926 27.7444 564.46 28.5114C565.994 29.2624 567.305 30.309 568.391 31.6512C569.478 32.9774 570.277 34.5114 570.788 36.2531C571.299 37.9788 571.451 39.8163 571.243 41.7657H552.764C552.972 42.8682 553.371 43.8669 553.962 44.7617C554.57 45.6405 555.337 46.3356 556.263 46.8469C557.206 47.3582 558.253 47.6219 559.403 47.6378C560.618 47.6378 561.72 47.3342 562.711 46.7271C563.717 46.1199 564.54 45.281 565.179 44.2104L570.237 45.3848C569.278 47.51 567.832 49.2517 565.899 50.6099C563.965 51.9521 561.8 52.6232 559.403 52.6232ZM552.596 37.9548H566.21C566.05 36.8043 565.643 35.7657 564.988 34.839C564.349 33.8962 563.542 33.1532 562.567 32.6099C561.608 32.0507 560.554 31.7711 559.403 31.7711C558.269 31.7711 557.214 32.0427 556.239 32.586C555.281 33.1292 554.482 33.8722 553.843 34.815C553.219 35.7417 552.804 36.7883 552.596 37.9548ZM582.497 52.4554C581.234 52.3755 580.004 52.1198 578.806 51.6884C577.607 51.257 576.553 50.6738 575.642 49.9388C574.747 49.1878 574.076 48.3089 573.629 47.3023L577.871 45.4807C578.079 45.9121 578.438 46.3356 578.949 46.751C579.477 47.1665 580.092 47.51 580.795 47.7816C581.498 48.0373 582.233 48.1651 583 48.1651C583.751 48.1651 584.446 48.0613 585.085 47.8535C585.74 47.6298 586.276 47.2943 586.691 46.8469C587.107 46.3995 587.314 45.8642 587.314 45.241C587.314 44.538 587.075 43.9947 586.595 43.6112C586.132 43.2118 585.549 42.9082 584.846 42.7004C584.142 42.4927 583.439 42.293 582.736 42.1012C581.17 41.7497 579.732 41.2703 578.422 40.6632C577.128 40.04 576.097 39.2491 575.33 38.2903C574.563 37.3156 574.18 36.1252 574.18 34.7191C574.18 33.1852 574.595 31.8589 575.426 30.7404C576.257 29.6059 577.344 28.7351 578.686 28.1279C580.044 27.5207 581.49 27.2171 583.024 27.2171C584.941 27.2171 586.699 27.6246 588.297 28.4395C589.895 29.2544 591.117 30.3729 591.964 31.795L588.009 34.1439C587.77 33.6645 587.41 33.2331 586.931 32.8496C586.451 32.4661 585.908 32.1625 585.301 31.9388C584.694 31.6991 584.063 31.5633 583.407 31.5314C582.593 31.4994 581.834 31.5953 581.131 31.819C580.443 32.0267 579.892 32.3623 579.477 32.8256C579.061 33.289 578.854 33.8802 578.854 34.5993C578.854 35.3023 579.101 35.8296 579.597 36.1812C580.092 36.5167 580.715 36.7883 581.466 36.9961C582.233 37.2038 583.016 37.4355 583.815 37.6911C585.237 38.1385 586.571 38.6898 587.818 39.3449C589.064 39.9841 590.071 40.775 590.838 41.7178C591.605 42.6605 591.972 43.811 591.94 45.1691C591.94 46.6711 591.485 47.9894 590.574 49.1238C589.679 50.2583 588.513 51.1212 587.075 51.7124C585.636 52.3036 584.111 52.5513 582.497 52.4554ZM603.235 52.4554C601.972 52.3755 600.742 52.1198 599.544 51.6884C598.345 51.257 597.291 50.6738 596.38 49.9388C595.485 49.1878 594.814 48.3089 594.366 47.3023L598.609 45.4807C598.817 45.9121 599.176 46.3356 599.687 46.751C600.215 47.1665 600.83 47.51 601.533 47.7816C602.236 48.0373 602.971 48.1651 603.738 48.1651C604.489 48.1651 605.184 48.0613 605.823 47.8535C606.478 47.6298 607.014 47.2943 607.429 46.8469C607.844 46.3995 608.052 45.8642 608.052 45.241C608.052 44.538 607.812 43.9947 607.333 43.6112C606.87 43.2118 606.287 42.9082 605.583 42.7004C604.88 42.4927 604.177 42.293 603.474 42.1012C601.908 41.7497 600.47 41.2703 599.16 40.6632C597.866 40.04 596.835 39.2491 596.068 38.2903C595.301 37.3156 594.918 36.1252 594.918 34.7191C594.918 33.1852 595.333 31.8589 596.164 30.7404C596.995 29.6059 598.081 28.7351 599.424 28.1279C600.782 27.5207 602.228 27.2171 603.762 27.2171C605.679 27.2171 607.437 27.6246 609.035 28.4395C610.633 29.2544 611.855 30.3729 612.702 31.795L608.747 34.1439C608.508 33.6645 608.148 33.2331 607.669 32.8496C607.189 32.4661 606.646 32.1625 606.039 31.9388C605.432 31.6991 604.801 31.5633 604.145 31.5314C603.33 31.4994 602.571 31.5953 601.868 31.819C601.181 32.0267 600.63 32.3623 600.215 32.8256C599.799 33.289 599.591 33.8802 599.591 34.5993C599.591 35.3023 599.839 35.8296 600.334 36.1812C600.83 36.5167 601.453 36.7883 602.204 36.9961C602.971 37.2038 603.754 37.4355 604.553 37.6911C605.975 38.1385 607.309 38.6898 608.555 39.3449C609.802 39.9841 610.808 40.775 611.575 41.7178C612.342 42.6605 612.71 43.811 612.678 45.1691C612.678 46.6711 612.223 47.9894 611.312 49.1238C610.417 50.2583 609.251 51.1212 607.812 51.7124C606.374 52.3036 604.848 52.5513 603.235 52.4554Z" fill="#6B5C56"/>
<defs>
<clipPath id="clip0_762_10960">
<rect width="98.7943" height="43.5525" fill="white" transform="translate(6 13.2238)"/>
</clipPath>
</defs>
</svg>
