<svg width="24" height="24" viewBox="0 0 24 24" fill="none" xmlns="http://www.w3.org/2000/svg">
<path d="M24 12C24 18.6274 18.6274 24 12 24C5.37258 24 0 18.6274 0 12C0 5.37258 5.37258 0 12 0C18.6274 0 24 5.37258 24 12ZM2.4 12C2.4 17.3019 6.69807 21.6 12 21.6C17.3019 21.6 21.6 17.3019 21.6 12C21.6 6.69807 17.3019 2.4 12 2.4C6.69807 2.4 2.4 6.69807 2.4 12Z" fill="#F4BE38"/>
<path d="M3.59033 11.9058C3.59033 13.4755 4.078 15.0101 4.99166 16.3153C5.90531 17.6206 7.20393 18.6379 8.72329 19.2386C10.2427 19.8393 11.9145 19.9965 13.5275 19.6903C15.1404 19.384 16.622 18.6281 17.7849 17.5181C18.9477 16.4081 19.7396 14.9938 20.0605 13.4542C20.3813 11.9146 20.2167 10.3187 19.5873 8.8684C18.958 7.4181 17.8922 6.17851 16.5248 5.30638C15.1574 4.43425 13.5498 3.96875 11.9053 3.96875L11.9053 11.9058L3.59033 11.9058Z" fill="#F4BE38"/>
</svg>
