<svg width="350" height="200" viewBox="0 0 350 200" fill="none" xmlns="http://www.w3.org/2000/svg">
<g clip-path="url(#clip0_762_10962)">
<path d="M157.609 42.6117C162.999 37.222 168.269 38.3217 173.092 42.8077C177.48 46.8798 184.775 42.579 183.022 36.8627C182.499 35.1533 181.291 33.7161 179.298 32.6055C159.7 21.7609 122.528 59.2378 108.057 80.7855C97.8441 95.9962 97.2888 86.8175 94.0877 78.9454C87.7726 63.3318 69.8943 20.7701 56.2406 34.2714C40.4746 49.8414 81.0328 105.893 92.9336 115.9C95.0023 117.631 97.9639 117.783 100.196 116.27C109.571 109.933 134.744 92.5011 154.963 74.9603C156.912 73.2726 157.587 70.5179 156.607 68.1334C152.448 58.0184 151.577 48.6655 157.631 42.6117H157.609Z" fill="#FF7D24"/>
<path d="M294.942 10.361C274.353 -1.03885 214.087 62.3192 202.567 83.6599C194.859 97.9343 194.369 86.1097 193.008 81.9396C190.264 73.5448 185.832 61.5679 180.41 52.4001C179.735 51.2568 178.113 51.1806 177.318 52.2477C174.454 56.0694 170.72 60.1851 166.419 64.4206C161.563 69.2114 160.583 76.7568 164.219 82.5276C172.799 96.1922 184.21 109.084 189.85 115.148C191.821 117.272 195.033 117.642 197.428 116.009C217.038 102.714 318.003 23.1219 294.942 10.361Z" fill="#69BCA0"/>
<path d="M97.4642 50.7451C96.3101 55.7754 99.5438 59.8258 104.65 59.8258C109.463 59.8258 113.786 55.8081 115.364 50.8975C116.954 45.987 113.633 41.6753 108.712 41.6753C103.79 41.6753 98.6184 45.7148 97.4642 50.7451Z" fill="#97D4C5"/>
<path d="M195.586 47.054C194.389 52.2803 197.742 56.494 203.045 56.494C208.347 56.494 212.528 52.3239 214.183 47.2173C215.838 42.1108 212.419 37.6358 207.269 37.6358C202.119 37.6358 196.784 41.8277 195.586 47.054Z" fill="#69BCA0"/>
</g>
<path d="M25.002 161.618C23.5226 161.618 22.1317 161.327 20.8294 160.743C19.5271 160.149 18.3811 159.337 17.3914 158.305C16.412 157.263 15.6411 156.055 15.0785 154.68C14.5263 153.304 14.2502 151.835 14.2502 150.273C14.2502 148.71 14.5263 147.241 15.0785 145.866C15.6411 144.49 16.412 143.287 17.3914 142.256C18.3811 141.214 19.5271 140.401 20.8294 139.818C22.1317 139.224 23.5226 138.927 25.002 138.927C26.7731 138.927 28.4036 139.338 29.8935 140.162C31.3833 140.985 32.6179 142.079 33.5972 143.443L30.7061 144.99C30.0289 144.136 29.1902 143.454 28.19 142.943C27.1899 142.433 26.1272 142.178 25.002 142.178C23.9602 142.178 22.986 142.391 22.0796 142.818C21.1732 143.245 20.3762 143.829 19.6886 144.569C19.001 145.308 18.4645 146.168 18.079 147.147C17.6935 148.126 17.5008 149.168 17.5008 150.273C17.5008 151.387 17.6935 152.434 18.079 153.414C18.4645 154.383 19.001 155.242 19.6886 155.992C20.3867 156.732 21.1889 157.315 22.0953 157.743C23.0017 158.159 23.9706 158.368 25.002 158.368C26.148 158.368 27.2159 158.112 28.2057 157.602C29.2058 157.081 30.0393 156.393 30.7061 155.539L33.5972 157.118C32.6179 158.482 31.3833 159.576 29.8935 160.399C28.4036 161.212 26.7731 161.618 25.002 161.618ZM50.7028 151.413V161.212H47.4523V152.21C47.4523 151.512 47.2804 150.877 46.9366 150.304C46.6032 149.731 46.15 149.278 45.577 148.944C45.0144 148.6 44.3789 148.429 43.6704 148.429C42.9828 148.429 42.3525 148.6 41.7795 148.944C41.2065 149.278 40.7481 149.731 40.4042 150.304C40.0604 150.877 39.8885 151.512 39.8885 152.21V161.212H36.638V137.771H39.8885V147.241C40.4303 146.595 41.0971 146.084 41.8889 145.709C42.6807 145.334 43.535 145.147 44.4518 145.147C45.6082 145.147 46.6605 145.428 47.6086 145.991C48.5566 146.553 49.3068 147.309 49.859 148.257C50.4215 149.205 50.7028 150.257 50.7028 151.413ZM53.1972 155.352V145.584H56.4477V154.555C56.4477 155.253 56.6196 155.888 56.9634 156.461C57.3072 157.034 57.7656 157.493 58.3386 157.836C58.9117 158.17 59.542 158.336 60.2296 158.336C60.9276 158.336 61.5579 158.17 62.1205 157.836C62.6935 157.493 63.1467 157.034 63.4801 156.461C63.8239 155.888 63.9958 155.253 63.9958 154.555V145.584H67.2464L67.262 161.212H64.0115L63.9958 159.524C63.4645 160.17 62.8029 160.681 62.0111 161.056C61.2193 161.431 60.3702 161.618 59.4638 161.618C58.3074 161.618 57.2551 161.337 56.307 160.774C55.359 160.212 54.6036 159.456 54.041 158.508C53.4785 157.56 53.1972 156.508 53.1972 155.352ZM70.5182 161.212V137.771H73.7687V161.212H70.5182ZM89.4525 145.584H92.703V161.212H89.4369L89.3118 158.946C88.8534 159.748 88.2335 160.394 87.4522 160.884C86.6708 161.373 85.7487 161.618 84.6861 161.618C83.54 161.618 82.4617 161.405 81.4512 160.978C80.4406 160.54 79.5498 159.936 78.7788 159.165C78.0183 158.394 77.4244 157.508 76.9973 156.508C76.5701 155.497 76.3565 154.414 76.3565 153.257C76.3565 152.143 76.5649 151.096 76.9817 150.116C77.3984 149.127 77.9766 148.262 78.7163 147.522C79.456 146.782 80.3103 146.204 81.2792 145.787C82.2586 145.36 83.3056 145.147 84.4204 145.147C85.556 145.147 86.5562 145.407 87.4209 145.928C88.296 146.439 89.0201 147.095 89.5931 147.897L89.4525 145.584ZM84.6079 158.477C85.5248 158.477 86.327 158.253 87.0146 157.805C87.7022 157.347 88.2335 156.732 88.6086 155.961C88.9941 155.19 89.1868 154.336 89.1868 153.398C89.1868 152.45 88.9941 151.591 88.6086 150.82C88.2231 150.049 87.6866 149.439 86.999 148.991C86.3218 148.533 85.5248 148.304 84.6079 148.304C83.7015 148.304 82.8733 148.533 82.1231 148.991C81.373 149.45 80.7792 150.064 80.3416 150.835C79.904 151.606 79.6852 152.46 79.6852 153.398C79.6852 154.346 79.9092 155.206 80.3572 155.977C80.8156 156.737 81.4147 157.347 82.1544 157.805C82.9045 158.253 83.7224 158.477 84.6079 158.477ZM111.128 161.618C109.93 161.618 108.779 161.431 107.675 161.056C106.57 160.681 105.606 160.144 104.783 159.446C103.96 158.738 103.372 157.899 103.018 156.93L106.065 155.789C106.242 156.289 106.581 156.737 107.081 157.133C107.591 157.519 108.195 157.821 108.893 158.04C109.602 158.258 110.347 158.368 111.128 158.368C111.962 158.368 112.743 158.232 113.472 157.961C114.212 157.691 114.806 157.315 115.254 156.836C115.712 156.357 115.942 155.794 115.942 155.148C115.942 154.482 115.702 153.935 115.223 153.508C114.754 153.08 114.15 152.742 113.41 152.492C112.681 152.242 111.92 152.054 111.128 151.929C109.597 151.679 108.222 151.314 107.003 150.835C105.794 150.356 104.836 149.684 104.127 148.819C103.429 147.955 103.08 146.829 103.08 145.444C103.08 144.141 103.45 143.006 104.19 142.037C104.94 141.068 105.924 140.318 107.143 139.786C108.373 139.245 109.701 138.974 111.128 138.974C112.306 138.974 113.441 139.161 114.535 139.536C115.639 139.901 116.608 140.438 117.442 141.146C118.286 141.844 118.89 142.693 119.255 143.693L116.176 144.803C115.999 144.292 115.66 143.85 115.16 143.475C114.66 143.089 114.056 142.787 113.347 142.568C112.649 142.349 111.91 142.24 111.128 142.24C110.295 142.23 109.513 142.365 108.784 142.646C108.065 142.917 107.477 143.292 107.018 143.772C106.56 144.251 106.331 144.808 106.331 145.444C106.331 146.225 106.544 146.819 106.971 147.225C107.398 147.632 107.971 147.934 108.69 148.132C109.42 148.319 110.232 148.491 111.128 148.647C112.566 148.877 113.894 149.257 115.113 149.788C116.343 150.319 117.327 151.028 118.067 151.914C118.817 152.789 119.192 153.867 119.192 155.148C119.192 156.44 118.817 157.576 118.067 158.555C117.327 159.524 116.343 160.279 115.113 160.821C113.894 161.353 112.566 161.618 111.128 161.618ZM130.658 148.835H127.376L127.361 161.212H124.11L124.126 148.835H121.641V145.584H124.126L124.11 140.677H127.361L127.376 145.584H130.658V148.835ZM132.831 155.352V145.584H136.081V154.555C136.081 155.253 136.253 155.888 136.597 156.461C136.941 157.034 137.399 157.493 137.972 157.836C138.545 158.17 139.176 158.336 139.863 158.336C140.561 158.336 141.192 158.17 141.754 157.836C142.327 157.493 142.78 157.034 143.114 156.461C143.458 155.888 143.63 155.253 143.63 154.555V145.584H146.88L146.896 161.212H143.645L143.63 159.524C143.098 160.17 142.437 160.681 141.645 161.056C140.853 161.431 140.004 161.618 139.098 161.618C137.941 161.618 136.889 161.337 135.941 160.774C134.993 160.212 134.237 159.456 133.675 158.508C133.112 157.56 132.831 156.508 132.831 155.352ZM161.99 137.771H165.241V161.212H161.99V158.915C161.48 159.727 160.813 160.384 159.99 160.884C159.167 161.373 158.203 161.618 157.099 161.618C155.963 161.618 154.9 161.405 153.911 160.978C152.921 160.55 152.046 159.962 151.285 159.212C150.535 158.451 149.946 157.576 149.519 156.586C149.092 155.596 148.878 154.534 148.878 153.398C148.878 152.263 149.092 151.2 149.519 150.21C149.946 149.21 150.535 148.335 151.285 147.585C152.046 146.824 152.921 146.23 153.911 145.803C154.9 145.376 155.963 145.162 157.099 145.162C158.203 145.162 159.167 145.412 159.99 145.913C160.813 146.402 161.48 147.048 161.99 147.85V137.771ZM157.13 158.477C158.047 158.477 158.849 158.253 159.536 157.805C160.224 157.347 160.755 156.732 161.131 155.961C161.516 155.19 161.709 154.336 161.709 153.398C161.709 152.45 161.516 151.591 161.131 150.82C160.745 150.049 160.208 149.439 159.521 148.991C158.844 148.533 158.047 148.304 157.13 148.304C156.223 148.304 155.395 148.533 154.645 148.991C153.905 149.45 153.311 150.064 152.863 150.835C152.426 151.606 152.207 152.46 152.207 153.398C152.207 154.346 152.431 155.206 152.879 155.977C153.338 156.737 153.937 157.347 154.676 157.805C155.426 158.253 156.244 158.477 157.13 158.477ZM175.647 161.618C174.209 161.618 172.896 161.248 171.709 160.509C170.531 159.769 169.589 158.779 168.88 157.539C168.182 156.289 167.833 154.909 167.833 153.398C167.833 152.252 168.036 151.184 168.443 150.194C168.849 149.194 169.406 148.319 170.115 147.569C170.834 146.808 171.667 146.215 172.615 145.787C173.563 145.36 174.574 145.147 175.647 145.147C176.845 145.147 177.944 145.397 178.944 145.897C179.944 146.387 180.799 147.069 181.507 147.944C182.216 148.809 182.737 149.809 183.07 150.945C183.403 152.07 183.502 153.268 183.367 154.539H171.318C171.453 155.258 171.714 155.909 172.099 156.492C172.495 157.065 172.995 157.519 173.6 157.852C174.214 158.185 174.897 158.357 175.647 158.368C176.439 158.368 177.158 158.17 177.803 157.774C178.46 157.378 178.996 156.831 179.413 156.133L182.711 156.899C182.085 158.284 181.143 159.42 179.882 160.306C178.621 161.181 177.21 161.618 175.647 161.618ZM171.209 152.054H180.085C179.981 151.304 179.715 150.627 179.288 150.023C178.871 149.408 178.345 148.923 177.71 148.569C177.085 148.205 176.397 148.022 175.647 148.022C174.907 148.022 174.22 148.199 173.584 148.554C172.959 148.908 172.438 149.392 172.021 150.007C171.615 150.611 171.344 151.294 171.209 152.054ZM200.02 151.413V161.212H196.769V152.21C196.769 151.512 196.597 150.877 196.254 150.304C195.92 149.731 195.467 149.278 194.894 148.944C194.331 148.6 193.696 148.429 192.987 148.429C192.3 148.429 191.669 148.6 191.096 148.944C190.523 149.278 190.065 149.731 189.721 150.304C189.377 150.877 189.206 151.512 189.206 152.21V161.212H185.955V145.584H189.206V147.241C189.747 146.595 190.414 146.084 191.206 145.709C191.998 145.334 192.852 145.147 193.769 145.147C194.925 145.147 195.977 145.428 196.926 145.991C197.874 146.553 198.624 147.309 199.176 148.257C199.739 149.205 200.02 150.257 200.02 151.413ZM211.391 148.835H208.109L208.093 161.212H204.843L204.858 148.835H202.373V145.584H204.858L204.843 140.677H208.093L208.109 145.584H211.391V148.835ZM226.51 161.212L220.916 139.333H224.26L228.354 155.383L232.433 139.333H235.387L239.481 155.383L243.576 139.333H246.92L241.357 161.212H237.622L233.918 146.725L230.214 161.212H226.51ZM254.487 161.618C253.049 161.618 251.736 161.248 250.549 160.509C249.371 159.769 248.429 158.779 247.72 157.539C247.022 156.289 246.673 154.909 246.673 153.398C246.673 152.252 246.876 151.184 247.283 150.194C247.689 149.194 248.246 148.319 248.955 147.569C249.674 146.808 250.507 146.215 251.455 145.787C252.403 145.36 253.414 145.147 254.487 145.147C255.685 145.147 256.784 145.397 257.784 145.897C258.785 146.387 259.639 147.069 260.347 147.944C261.056 148.809 261.577 149.809 261.91 150.945C262.243 152.07 262.342 153.268 262.207 154.539H250.158C250.294 155.258 250.554 155.909 250.939 156.492C251.335 157.065 251.835 157.519 252.44 157.852C253.054 158.185 253.737 158.357 254.487 158.368C255.279 158.368 255.998 158.17 256.644 157.774C257.3 157.378 257.836 156.831 258.253 156.133L261.551 156.899C260.926 158.284 259.983 159.42 258.722 160.306C257.461 161.181 256.05 161.618 254.487 161.618ZM250.049 152.054H258.925C258.821 151.304 258.555 150.627 258.128 150.023C257.711 149.408 257.185 148.923 256.55 148.569C255.925 148.205 255.237 148.022 254.487 148.022C253.747 148.022 253.06 148.199 252.424 148.554C251.799 148.908 251.278 149.392 250.861 150.007C250.455 150.611 250.184 151.294 250.049 152.054ZM264.581 161.212V137.771H267.832V161.212H264.581ZM271.571 161.212V137.771H274.822V161.212H271.571ZM292.626 151.413V161.212H289.375V152.21C289.375 151.512 289.203 150.877 288.859 150.304C288.526 149.731 288.073 149.278 287.5 148.944C286.937 148.6 286.302 148.429 285.593 148.429C284.906 148.429 284.275 148.6 283.702 148.944C283.129 149.278 282.671 149.731 282.327 150.304C281.983 150.877 281.811 151.512 281.811 152.21V161.212H278.561V145.584H281.811V147.241C282.353 146.595 283.02 146.084 283.812 145.709C284.603 145.334 285.458 145.147 286.375 145.147C287.531 145.147 288.583 145.428 289.531 145.991C290.479 146.553 291.23 147.309 291.782 148.257C292.344 149.205 292.626 150.257 292.626 151.413ZM302.316 161.618C300.878 161.618 299.566 161.248 298.378 160.509C297.201 159.769 296.258 158.779 295.549 157.539C294.851 156.289 294.502 154.909 294.502 153.398C294.502 152.252 294.705 151.184 295.112 150.194C295.518 149.194 296.075 148.319 296.784 147.569C297.503 146.808 298.336 146.215 299.284 145.787C300.232 145.36 301.243 145.147 302.316 145.147C303.514 145.147 304.613 145.397 305.613 145.897C306.614 146.387 307.468 147.069 308.176 147.944C308.885 148.809 309.406 149.809 309.739 150.945C310.072 152.07 310.171 153.268 310.036 154.539H297.987C298.123 155.258 298.383 155.909 298.769 156.492C299.164 157.065 299.664 157.519 300.269 157.852C300.883 158.185 301.566 158.357 302.316 158.368C303.108 158.368 303.827 158.17 304.473 157.774C305.129 157.378 305.665 156.831 306.082 156.133L309.38 156.899C308.755 158.284 307.812 159.42 306.551 160.306C305.29 161.181 303.879 161.618 302.316 161.618ZM297.878 152.054H306.754C306.65 151.304 306.384 150.627 305.957 150.023C305.54 149.408 305.014 148.923 304.379 148.569C303.754 148.205 303.066 148.022 302.316 148.022C301.576 148.022 300.889 148.199 300.253 148.554C299.628 148.908 299.107 149.392 298.69 150.007C298.284 150.611 298.013 151.294 297.878 152.054ZM317.373 161.509C316.55 161.457 315.748 161.29 314.967 161.009C314.185 160.727 313.498 160.347 312.904 159.868C312.321 159.378 311.883 158.805 311.591 158.149L314.357 156.961C314.493 157.243 314.727 157.519 315.061 157.789C315.404 158.06 315.805 158.284 316.264 158.461C316.722 158.628 317.202 158.712 317.702 158.712C318.191 158.712 318.644 158.644 319.061 158.508C319.488 158.363 319.837 158.144 320.108 157.852C320.379 157.56 320.515 157.211 320.515 156.805C320.515 156.347 320.358 155.992 320.046 155.742C319.744 155.482 319.363 155.284 318.905 155.148C318.447 155.013 317.988 154.883 317.53 154.758C316.509 154.529 315.571 154.216 314.717 153.82C313.873 153.414 313.201 152.898 312.701 152.273C312.201 151.637 311.951 150.861 311.951 149.944C311.951 148.944 312.222 148.08 312.763 147.35C313.305 146.611 314.014 146.043 314.889 145.647C315.774 145.251 316.717 145.053 317.717 145.053C318.967 145.053 320.113 145.319 321.155 145.85C322.197 146.381 322.994 147.111 323.546 148.038L320.968 149.569C320.812 149.257 320.577 148.976 320.265 148.725C319.952 148.475 319.598 148.277 319.202 148.132C318.806 147.975 318.394 147.887 317.967 147.866C317.436 147.845 316.941 147.908 316.483 148.053C316.035 148.189 315.675 148.408 315.404 148.71C315.133 149.012 314.998 149.397 314.998 149.866C314.998 150.325 315.16 150.669 315.483 150.898C315.805 151.117 316.212 151.294 316.701 151.429C317.202 151.564 317.712 151.716 318.233 151.882C319.16 152.174 320.03 152.533 320.843 152.961C321.655 153.377 322.312 153.893 322.812 154.508C323.312 155.122 323.552 155.873 323.531 156.758C323.531 157.737 323.234 158.597 322.64 159.337C322.057 160.076 321.296 160.639 320.358 161.024C319.421 161.41 318.426 161.571 317.373 161.509ZM330.895 161.509C330.072 161.457 329.27 161.29 328.488 161.009C327.707 160.727 327.019 160.347 326.425 159.868C325.842 159.378 325.404 158.805 325.113 158.149L327.879 156.961C328.014 157.243 328.249 157.519 328.582 157.789C328.926 158.06 329.327 158.284 329.785 158.461C330.244 158.628 330.723 158.712 331.223 158.712C331.713 158.712 332.166 158.644 332.583 158.508C333.01 158.363 333.359 158.144 333.63 157.852C333.901 157.56 334.036 157.211 334.036 156.805C334.036 156.347 333.88 155.992 333.567 155.742C333.265 155.482 332.885 155.284 332.426 155.148C331.968 155.013 331.51 154.883 331.051 154.758C330.03 154.529 329.093 154.216 328.238 153.82C327.394 153.414 326.722 152.898 326.222 152.273C325.722 151.637 325.472 150.861 325.472 149.944C325.472 148.944 325.743 148.08 326.285 147.35C326.827 146.611 327.535 146.043 328.41 145.647C329.296 145.251 330.239 145.053 331.239 145.053C332.489 145.053 333.635 145.319 334.677 145.85C335.719 146.381 336.516 147.111 337.068 148.038L334.489 149.569C334.333 149.257 334.099 148.976 333.786 148.725C333.474 148.475 333.119 148.277 332.723 148.132C332.328 147.975 331.916 147.887 331.489 147.866C330.957 147.845 330.463 147.908 330.004 148.053C329.556 148.189 329.197 148.408 328.926 148.71C328.655 149.012 328.52 149.397 328.52 149.866C328.52 150.325 328.681 150.669 329.004 150.898C329.327 151.117 329.733 151.294 330.223 151.429C330.723 151.564 331.234 151.716 331.755 151.882C332.682 152.174 333.552 152.533 334.364 152.961C335.177 153.377 335.833 153.893 336.333 154.508C336.833 155.122 337.073 155.873 337.052 156.758C337.052 157.737 336.755 158.597 336.161 159.337C335.578 160.076 334.818 160.639 333.88 161.024C332.942 161.41 331.947 161.571 330.895 161.509Z" fill="#6B5C56"/>
<path d="M70.8281 186.44C69.8436 186.44 68.9938 186.2 68.2789 185.72C67.5639 185.239 67.013 184.594 66.6262 183.786C66.2453 182.971 66.0549 182.069 66.0549 181.078V173.905H67.2855V181.078C67.2855 181.828 67.4233 182.517 67.6987 183.144C67.9741 183.771 68.3756 184.272 68.903 184.647C69.4304 185.022 70.0721 185.21 70.8281 185.21C71.6017 185.21 72.2493 185.022 72.7708 184.647C73.2983 184.266 73.6968 183.762 73.9663 183.135C74.2359 182.508 74.3707 181.823 74.3707 181.078V173.905H75.6014V181.078C75.6014 181.823 75.49 182.52 75.2673 183.17C75.0505 183.815 74.7341 184.384 74.318 184.876C73.9077 185.368 73.4067 185.752 72.8148 186.027C72.2287 186.303 71.5665 186.44 70.8281 186.44ZM85.2578 180.771V186.212H84.0271V181.017C84.0271 180.536 83.9099 180.1 83.6755 179.707C83.4411 179.314 83.1275 179.001 82.7349 178.766C82.3423 178.532 81.9057 178.415 81.4251 178.415C80.9504 178.415 80.5138 178.532 80.1153 178.766C79.7227 179.001 79.4091 179.314 79.1747 179.707C78.9403 180.1 78.8231 180.536 78.8231 181.017V186.212H77.5924V177.421H78.8231V178.635C79.1337 178.189 79.5381 177.835 80.0362 177.571C80.5343 177.307 81.0764 177.175 81.6625 177.175C82.3247 177.175 82.9283 177.336 83.4733 177.659C84.0183 177.981 84.452 178.415 84.7743 178.96C85.0966 179.505 85.2578 180.108 85.2578 180.771ZM87.0182 177.421H88.2489V186.212H87.0182V177.421ZM87.6424 175.883C87.4431 175.883 87.2731 175.819 87.1325 175.69C86.9977 175.555 86.9303 175.388 86.9303 175.189C86.9303 174.989 86.9977 174.825 87.1325 174.696C87.2731 174.562 87.4431 174.494 87.6424 174.494C87.8357 174.494 87.9998 174.562 88.1346 174.696C88.2753 174.825 88.3456 174.989 88.3456 175.189C88.3456 175.388 88.2782 175.555 88.1434 175.69C88.0086 175.819 87.8416 175.883 87.6424 175.883ZM94.4918 186.212H92.9271L89.7186 177.395H91.0284L93.7095 184.77L96.3906 177.395H97.7004L94.4918 186.212ZM102.681 186.44C101.872 186.44 101.134 186.232 100.466 185.816C99.8037 185.4 99.2734 184.844 98.8749 184.146C98.4822 183.443 98.2859 182.666 98.2859 181.817C98.2859 181.172 98.4002 180.571 98.6287 180.015C98.8573 179.452 99.1708 178.96 99.5693 178.538C99.9737 178.11 100.443 177.776 100.976 177.536C101.509 177.295 102.078 177.175 102.681 177.175C103.332 177.175 103.929 177.304 104.474 177.562C105.025 177.82 105.497 178.18 105.89 178.643C106.288 179.106 106.587 179.648 106.786 180.27C106.991 180.891 107.076 181.562 107.041 182.283H99.5869C99.6572 182.839 99.833 183.337 100.114 183.777C100.401 184.216 100.765 184.565 101.204 184.823C101.65 185.075 102.142 185.204 102.681 185.21C103.267 185.21 103.795 185.057 104.263 184.753C104.738 184.448 105.119 184.029 105.406 183.496L106.654 183.786C106.303 184.565 105.773 185.204 105.063 185.702C104.354 186.194 103.56 186.44 102.681 186.44ZM99.5517 181.289H105.802C105.761 180.744 105.594 180.246 105.301 179.795C105.014 179.338 104.641 178.974 104.184 178.705C103.727 178.429 103.226 178.292 102.681 178.292C102.136 178.292 101.638 178.426 101.187 178.696C100.736 178.96 100.366 179.32 100.079 179.777C99.792 180.229 99.6162 180.733 99.5517 181.289ZM108.548 186.212V177.421H109.779V178.635C110.089 178.189 110.494 177.835 110.992 177.571C111.49 177.307 112.032 177.175 112.618 177.175C112.958 177.175 113.286 177.219 113.603 177.307L113.102 178.529C112.856 178.453 112.615 178.415 112.381 178.415C111.906 178.415 111.47 178.532 111.071 178.766C110.678 179.001 110.365 179.314 110.13 179.707C109.896 180.1 109.779 180.536 109.779 181.017V186.212H108.548ZM117.428 186.379C116.948 186.367 116.479 186.279 116.022 186.115C115.565 185.951 115.166 185.728 114.826 185.447C114.486 185.166 114.243 184.846 114.097 184.489L115.16 184.032C115.254 184.26 115.427 184.471 115.679 184.665C115.937 184.852 116.23 185.005 116.558 185.122C116.886 185.233 117.211 185.289 117.534 185.289C117.891 185.289 118.225 185.23 118.536 185.113C118.846 184.996 119.098 184.829 119.292 184.612C119.491 184.389 119.591 184.129 119.591 183.83C119.591 183.507 119.485 183.255 119.274 183.074C119.063 182.886 118.797 182.74 118.474 182.634C118.152 182.523 117.821 182.417 117.481 182.318C116.86 182.148 116.312 181.96 115.837 181.755C115.362 181.55 114.99 181.289 114.721 180.973C114.457 180.65 114.325 180.237 114.325 179.733C114.325 179.2 114.474 178.74 114.773 178.353C115.078 177.961 115.474 177.659 115.96 177.448C116.452 177.231 116.977 177.123 117.534 177.123C118.249 177.123 118.899 177.278 119.485 177.588C120.077 177.899 120.505 178.312 120.769 178.828L119.775 179.417C119.67 179.177 119.503 178.969 119.274 178.793C119.046 178.617 118.785 178.479 118.492 178.38C118.205 178.28 117.912 178.227 117.613 178.221C117.238 178.215 116.889 178.271 116.567 178.388C116.244 178.5 115.984 178.667 115.784 178.889C115.591 179.112 115.494 179.385 115.494 179.707C115.494 180.029 115.591 180.275 115.784 180.445C115.978 180.609 116.238 180.744 116.567 180.85C116.901 180.949 117.276 181.067 117.692 181.201C118.225 181.371 118.726 181.565 119.195 181.782C119.664 181.998 120.042 182.268 120.329 182.59C120.616 182.913 120.757 183.32 120.751 183.812C120.751 184.34 120.593 184.8 120.276 185.192C119.96 185.585 119.55 185.887 119.046 186.098C118.542 186.303 118.002 186.397 117.428 186.379ZM122.18 177.421H123.411V186.212H122.18V177.421ZM122.804 175.883C122.605 175.883 122.435 175.819 122.295 175.69C122.16 175.555 122.092 175.388 122.092 175.189C122.092 174.989 122.16 174.825 122.295 174.696C122.435 174.562 122.605 174.494 122.804 174.494C122.998 174.494 123.162 174.562 123.297 174.696C123.437 174.825 123.508 174.989 123.508 175.189C123.508 175.388 123.44 175.555 123.306 175.69C123.171 175.819 123.004 175.883 122.804 175.883ZM130.02 178.652H127.919L127.911 186.212H126.68L126.689 178.652H125.098V177.421H126.689L126.68 174.661H127.911L127.919 177.421H130.02V178.652ZM137.456 177.421H138.757L133.949 190.607H132.639L134.239 186.212L131.083 177.421H132.428L134.854 184.515L137.456 177.421ZM140.104 178.494V173.905H141.044V178.494H140.104ZM145.293 186.379C144.813 186.367 144.344 186.279 143.887 186.115C143.43 185.951 143.031 185.728 142.691 185.447C142.352 185.166 142.108 184.846 141.962 184.489L143.025 184.032C143.119 184.26 143.292 184.471 143.544 184.665C143.802 184.852 144.095 185.005 144.423 185.122C144.751 185.233 145.077 185.289 145.399 185.289C145.756 185.289 146.09 185.23 146.401 185.113C146.712 184.996 146.964 184.829 147.157 184.612C147.356 184.389 147.456 184.129 147.456 183.83C147.456 183.507 147.35 183.255 147.139 183.074C146.928 182.886 146.662 182.74 146.339 182.634C146.017 182.523 145.686 182.417 145.346 182.318C144.725 182.148 144.177 181.96 143.702 181.755C143.228 181.55 142.856 181.289 142.586 180.973C142.322 180.65 142.19 180.237 142.19 179.733C142.19 179.2 142.34 178.74 142.639 178.353C142.943 177.961 143.339 177.659 143.825 177.448C144.318 177.231 144.842 177.123 145.399 177.123C146.114 177.123 146.764 177.278 147.35 177.588C147.942 177.899 148.37 178.312 148.634 178.828L147.64 179.417C147.535 179.177 147.368 178.969 147.139 178.793C146.911 178.617 146.65 178.479 146.357 178.38C146.07 178.28 145.777 178.227 145.478 178.221C145.103 178.215 144.754 178.271 144.432 178.388C144.11 178.5 143.849 178.667 143.65 178.889C143.456 179.112 143.359 179.385 143.359 179.707C143.359 180.029 143.456 180.275 143.65 180.445C143.843 180.609 144.104 180.744 144.432 180.85C144.766 180.949 145.141 181.067 145.557 181.201C146.09 181.371 146.591 181.565 147.06 181.782C147.529 181.998 147.907 182.268 148.194 182.59C148.481 182.913 148.622 183.32 148.616 183.812C148.616 184.34 148.458 184.8 148.142 185.192C147.825 185.585 147.415 185.887 146.911 186.098C146.407 186.303 145.868 186.397 145.293 186.379ZM154.355 186.212L156.737 173.905H157.634L161.08 182.959L164.508 173.905H165.405L167.796 186.212H166.539L164.719 176.797L161.467 185.403H160.675L157.423 176.797L155.603 186.212H154.355ZM169.756 177.421H170.986V186.212H169.756V177.421ZM170.38 175.883C170.181 175.883 170.011 175.819 169.87 175.69C169.735 175.555 169.668 175.388 169.668 175.189C169.668 174.989 169.735 174.825 169.87 174.696C170.011 174.562 170.181 174.494 170.38 174.494C170.573 174.494 170.737 174.562 170.872 174.696C171.013 174.825 171.083 174.989 171.083 175.189C171.083 175.388 171.016 175.555 170.881 175.69C170.746 175.819 170.579 175.883 170.38 175.883ZM180.735 180.771V186.212H179.504V181.017C179.504 180.536 179.387 180.1 179.152 179.707C178.918 179.314 178.604 179.001 178.212 178.766C177.819 178.532 177.383 178.415 176.902 178.415C176.427 178.415 175.991 178.532 175.592 178.766C175.2 179.001 174.886 179.314 174.652 179.707C174.417 180.1 174.3 180.536 174.3 181.017V186.212H173.069V177.421H174.3V178.635C174.611 178.189 175.015 177.835 175.513 177.571C176.011 177.307 176.553 177.175 177.139 177.175C177.802 177.175 178.405 177.336 178.95 177.659C179.495 177.981 179.929 178.415 180.251 178.96C180.573 179.505 180.735 180.108 180.735 180.771ZM189.558 173.026H190.789V186.212H189.558V184.568C189.253 185.131 188.834 185.585 188.301 185.931C187.774 186.271 187.146 186.44 186.42 186.44C185.781 186.44 185.183 186.32 184.627 186.08C184.07 185.84 183.578 185.509 183.15 185.087C182.728 184.659 182.397 184.167 182.156 183.61C181.916 183.053 181.796 182.455 181.796 181.817C181.796 181.178 181.916 180.58 182.156 180.023C182.397 179.461 182.728 178.969 183.15 178.547C183.578 178.119 184.07 177.785 184.627 177.544C185.183 177.304 185.781 177.184 186.42 177.184C187.146 177.184 187.774 177.357 188.301 177.703C188.834 178.043 189.253 178.491 189.558 179.048V173.026ZM186.429 185.245C187.056 185.245 187.595 185.093 188.046 184.788C188.497 184.477 188.843 184.061 189.083 183.54C189.329 183.018 189.453 182.444 189.453 181.817C189.453 181.172 189.329 180.592 189.083 180.076C188.837 179.555 188.488 179.141 188.037 178.837C187.586 178.532 187.05 178.38 186.429 178.38C185.807 178.38 185.242 178.535 184.732 178.845C184.222 179.15 183.815 179.563 183.51 180.085C183.205 180.607 183.053 181.184 183.053 181.817C183.053 182.455 183.208 183.036 183.519 183.557C183.83 184.073 184.24 184.483 184.75 184.788C185.265 185.093 185.825 185.245 186.429 185.245ZM202.819 186.44C201.987 186.44 201.205 186.276 200.472 185.948C199.74 185.614 199.095 185.157 198.538 184.577C197.987 183.991 197.554 183.311 197.237 182.538C196.927 181.764 196.771 180.938 196.771 180.059C196.771 179.18 196.927 178.353 197.237 177.58C197.554 176.806 197.987 176.129 198.538 175.549C199.095 174.963 199.74 174.506 200.472 174.178C201.205 173.844 201.987 173.677 202.819 173.677C203.816 173.677 204.733 173.908 205.571 174.371C206.409 174.834 207.103 175.449 207.654 176.217L206.564 176.806C206.13 176.226 205.58 175.766 204.911 175.426C204.249 175.08 203.552 174.907 202.819 174.907C202.145 174.907 201.515 175.045 200.929 175.32C200.349 175.59 199.839 175.962 199.4 176.437C198.96 176.912 198.617 177.46 198.371 178.081C198.125 178.702 198.002 179.361 198.002 180.059C198.002 180.768 198.125 181.433 198.371 182.054C198.623 182.675 198.969 183.223 199.409 183.698C199.854 184.173 200.367 184.545 200.947 184.814C201.533 185.078 202.157 185.21 202.819 185.21C203.581 185.21 204.287 185.037 204.938 184.691C205.594 184.34 206.136 183.882 206.564 183.32L207.654 183.909C207.103 184.677 206.409 185.292 205.571 185.755C204.733 186.212 203.816 186.44 202.819 186.44ZM212.838 186.44C212.029 186.44 211.29 186.232 210.622 185.816C209.96 185.4 209.43 184.844 209.031 184.146C208.639 183.443 208.442 182.666 208.442 181.817C208.442 181.172 208.557 180.571 208.785 180.015C209.014 179.452 209.327 178.96 209.726 178.538C210.13 178.11 210.599 177.776 211.132 177.536C211.665 177.295 212.234 177.175 212.838 177.175C213.646 177.175 214.382 177.383 215.044 177.799C215.712 178.215 216.242 178.775 216.635 179.478C217.034 180.182 217.233 180.961 217.233 181.817C217.233 182.455 217.119 183.053 216.89 183.61C216.661 184.167 216.345 184.659 215.941 185.087C215.542 185.509 215.076 185.84 214.543 186.08C214.015 186.32 213.447 186.44 212.838 186.44ZM212.838 185.21C213.435 185.21 213.972 185.055 214.446 184.744C214.927 184.427 215.305 184.011 215.58 183.496C215.861 182.98 216.002 182.42 216.002 181.817C216.002 181.201 215.861 180.636 215.58 180.12C215.299 179.599 214.918 179.182 214.437 178.872C213.963 178.561 213.429 178.406 212.838 178.406C212.24 178.406 211.701 178.564 211.22 178.881C210.745 179.191 210.367 179.604 210.086 180.12C209.811 180.636 209.673 181.201 209.673 181.817C209.673 182.45 209.817 183.024 210.104 183.54C210.391 184.049 210.775 184.457 211.255 184.762C211.736 185.06 212.263 185.21 212.838 185.21ZM218.722 186.212V177.421H219.952V178.635C220.269 178.189 220.673 177.835 221.165 177.571C221.658 177.307 222.197 177.175 222.783 177.175C223.445 177.175 224.052 177.339 224.603 177.668C225.153 177.99 225.584 178.421 225.895 178.96C226.205 178.421 226.633 177.99 227.178 177.668C227.723 177.339 228.327 177.175 228.989 177.175C229.651 177.175 230.255 177.336 230.8 177.659C231.345 177.981 231.779 178.415 232.101 178.96C232.423 179.505 232.584 180.108 232.584 180.771V186.212H231.354V181.043C231.354 180.574 231.239 180.141 231.011 179.742C230.782 179.344 230.475 179.024 230.088 178.784C229.707 178.538 229.282 178.415 228.813 178.415C228.344 178.415 227.917 178.529 227.53 178.758C227.149 178.98 226.844 179.291 226.616 179.689C226.387 180.082 226.273 180.533 226.273 181.043V186.212H225.042V181.043C225.042 180.533 224.928 180.082 224.699 179.689C224.471 179.291 224.163 178.98 223.776 178.758C223.389 178.529 222.962 178.415 222.493 178.415C222.03 178.415 221.605 178.538 221.218 178.784C220.831 179.024 220.524 179.344 220.295 179.742C220.067 180.141 219.952 180.574 219.952 181.043V186.212H218.722ZM235.576 190.607H234.345V177.421H235.576V179.065C235.881 178.509 236.297 178.057 236.824 177.711C237.352 177.366 237.979 177.193 238.706 177.193C239.344 177.193 239.942 177.313 240.499 177.553C241.061 177.794 241.554 178.128 241.976 178.555C242.398 178.977 242.729 179.467 242.969 180.023C243.209 180.58 243.329 181.178 243.329 181.817C243.329 182.455 243.209 183.056 242.969 183.619C242.729 184.181 242.398 184.677 241.976 185.104C241.554 185.526 241.061 185.857 240.499 186.098C239.942 186.338 239.344 186.458 238.706 186.458C237.979 186.458 237.352 186.285 236.824 185.939C236.297 185.594 235.881 185.142 235.576 184.586V190.607ZM238.697 178.388C238.081 178.388 237.545 178.544 237.088 178.854C236.637 179.159 236.288 179.569 236.042 180.085C235.796 180.601 235.673 181.178 235.673 181.817C235.673 182.444 235.793 183.018 236.033 183.54C236.279 184.061 236.628 184.477 237.079 184.788C237.536 185.098 238.076 185.254 238.697 185.254C239.306 185.254 239.866 185.101 240.376 184.797C240.892 184.492 241.305 184.082 241.615 183.566C241.926 183.044 242.081 182.461 242.081 181.817C242.081 181.19 241.929 180.618 241.624 180.103C241.319 179.581 240.912 179.165 240.402 178.854C239.892 178.544 239.324 178.388 238.697 178.388ZM251.959 177.421H253.189V186.212H251.959L251.915 184.577C251.627 185.134 251.226 185.585 250.71 185.931C250.195 186.271 249.579 186.44 248.864 186.44C248.22 186.44 247.616 186.32 247.053 186.08C246.491 185.834 245.996 185.497 245.568 185.069C245.14 184.641 244.806 184.146 244.566 183.584C244.325 183.021 244.205 182.417 244.205 181.773C244.205 181.14 244.323 180.545 244.557 179.988C244.797 179.432 245.125 178.942 245.541 178.52C245.963 178.098 246.45 177.77 247.001 177.536C247.557 177.295 248.152 177.175 248.785 177.175C249.518 177.175 250.157 177.351 250.702 177.703C251.247 178.048 251.68 178.503 252.003 179.065L251.959 177.421ZM248.838 185.245C249.465 185.245 250.004 185.093 250.455 184.788C250.907 184.477 251.252 184.061 251.493 183.54C251.739 183.018 251.862 182.444 251.862 181.817C251.862 181.172 251.739 180.592 251.493 180.076C251.247 179.555 250.898 179.141 250.447 178.837C249.995 178.532 249.459 178.38 248.838 178.38C248.217 178.38 247.648 178.535 247.133 178.845C246.623 179.15 246.215 179.563 245.911 180.085C245.612 180.607 245.462 181.184 245.462 181.817C245.462 182.455 245.618 183.036 245.928 183.557C246.239 184.073 246.649 184.483 247.159 184.788C247.675 185.093 248.234 185.245 248.838 185.245ZM262.614 180.771V186.212H261.383V181.017C261.383 180.536 261.266 180.1 261.031 179.707C260.797 179.314 260.483 179.001 260.091 178.766C259.698 178.532 259.262 178.415 258.781 178.415C258.306 178.415 257.87 178.532 257.471 178.766C257.079 179.001 256.765 179.314 256.531 179.707C256.296 180.1 256.179 180.536 256.179 181.017V186.212H254.948V177.421H256.179V178.635C256.49 178.189 256.894 177.835 257.392 177.571C257.89 177.307 258.432 177.175 259.018 177.175C259.681 177.175 260.284 177.336 260.829 177.659C261.374 177.981 261.808 178.415 262.13 178.96C262.452 179.505 262.614 180.108 262.614 180.771ZM264.374 177.421H265.605V186.212H264.374V177.421ZM264.998 175.883C264.799 175.883 264.629 175.819 264.488 175.69C264.354 175.555 264.286 175.388 264.286 175.189C264.286 174.989 264.354 174.825 264.488 174.696C264.629 174.562 264.799 174.494 264.998 174.494C265.192 174.494 265.356 174.562 265.49 174.696C265.631 174.825 265.701 174.989 265.701 175.189C265.701 175.388 265.634 175.555 265.499 175.69C265.364 175.819 265.197 175.883 264.998 175.883ZM271.504 186.44C270.695 186.44 269.957 186.232 269.289 185.816C268.627 185.4 268.096 184.844 267.698 184.146C267.305 183.443 267.109 182.666 267.109 181.817C267.109 181.172 267.223 180.571 267.452 180.015C267.68 179.452 267.994 178.96 268.392 178.538C268.797 178.11 269.265 177.776 269.799 177.536C270.332 177.295 270.9 177.175 271.504 177.175C272.313 177.175 273.048 177.383 273.71 177.799C274.379 178.215 274.909 178.775 275.302 179.478C275.7 180.182 275.899 180.961 275.899 181.817C275.899 182.455 275.785 183.053 275.556 183.61C275.328 184.167 275.011 184.659 274.607 185.087C274.209 185.509 273.743 185.84 273.209 186.08C272.682 186.32 272.114 186.44 271.504 186.44ZM271.504 185.21C272.102 185.21 272.638 185.055 273.113 184.744C273.593 184.427 273.971 184.011 274.247 183.496C274.528 182.98 274.669 182.42 274.669 181.817C274.669 181.201 274.528 180.636 274.247 180.12C273.965 179.599 273.584 179.182 273.104 178.872C272.629 178.561 272.096 178.406 271.504 178.406C270.906 178.406 270.367 178.564 269.887 178.881C269.412 179.191 269.034 179.604 268.753 180.12C268.477 180.636 268.339 181.201 268.339 181.817C268.339 182.45 268.483 183.024 268.77 183.54C269.057 184.049 269.441 184.457 269.922 184.762C270.402 185.06 270.93 185.21 271.504 185.21ZM285.054 180.771V186.212H283.823V181.017C283.823 180.536 283.706 180.1 283.471 179.707C283.237 179.314 282.923 179.001 282.531 178.766C282.138 178.532 281.701 178.415 281.221 178.415C280.746 178.415 280.31 178.532 279.911 178.766C279.518 179.001 279.205 179.314 278.971 179.707C278.736 180.1 278.619 180.536 278.619 181.017V186.212H277.388V177.421H278.619V178.635C278.929 178.189 279.334 177.835 279.832 177.571C280.33 177.307 280.872 177.175 281.458 177.175C282.12 177.175 282.724 177.336 283.269 177.659C283.814 177.981 284.248 178.415 284.57 178.96C284.892 179.505 285.054 180.108 285.054 180.771Z" fill="#6B5C56"/>
<defs>
<clipPath id="clip0_762_10962">
<rect width="245.702" height="108.315" fill="white" transform="translate(52.6484 9)"/>
</clipPath>
</defs>
</svg>
