<svg width="24" height="24" viewBox="0 0 24 24" fill="none" xmlns="http://www.w3.org/2000/svg">
<path d="M24 12C24 18.6274 18.6274 24 12 24C5.37258 24 0 18.6274 0 12C0 5.37258 5.37258 0 12 0C18.6274 0 24 5.37258 24 12ZM2.4 12C2.4 17.3019 6.69807 21.6 12 21.6C17.3019 21.6 21.6 17.3019 21.6 12C21.6 6.69807 17.3019 2.4 12 2.4C6.69807 2.4 2.4 6.69807 2.4 12Z" fill="#F79939"/>
<path d="M11.9053 19.8428C14.1106 19.8428 16.2255 19.0065 17.7849 17.5181C19.3442 16.0296 20.2203 14.0108 20.2203 11.9058C20.2203 9.80073 19.3442 7.78192 17.7849 6.29345C16.2255 4.80497 14.1106 3.96875 11.9053 3.96875L11.9053 11.9058V19.8428Z" fill="#F79939"/>
</svg>
