<svg width="24" height="24" viewBox="0 0 24 24" fill="none" xmlns="http://www.w3.org/2000/svg"  >
<path d="M16.816 12.12C17.6 12.376 18.224 12.808 18.688 13.416C19.168 14.024 19.408 14.712 19.408 15.48V16.68C19.408 18.008 18.952 19.064 18.04 19.848C17.128 20.616 15.896 21 14.344 21H13.288V23.52H10.528V21H7.52803C6.92003 21 6.42403 20.816 6.04003 20.448C5.65603 20.064 5.46403 19.576 5.46403 18.984V4.2H10.528V1.68H13.288V4.2H13.408C14.896 4.2 16.088 4.56 16.984 5.28C17.896 5.984 18.352 6.92 18.352 8.088V9.312C18.352 9.872 18.216 10.4 17.944 10.896C17.672 11.392 17.296 11.792 16.816 12.096V12.12ZM8.27203 11.376H13.552C14.144 11.376 14.624 11.184 14.992 10.8C15.36 10.416 15.544 9.92 15.544 9.312V8.328C15.544 7.816 15.336 7.408 14.92 7.104C14.52 6.8 13.984 6.648 13.312 6.648H8.27203V11.376ZM16.6 15.48C16.6 14.936 16.408 14.504 16.024 14.184C15.64 13.848 15.128 13.68 14.488 13.68H8.27203V18.552H14.104C14.888 18.552 15.496 18.376 15.928 18.024C16.376 17.672 16.6 17.184 16.6 16.56V15.48Z" fill="#69BCA0"/>
</svg>
